<?xml version="1.0" encoding="UTF-8" standalone="no"?>
<svg
   xmlns:dc="http://purl.org/dc/elements/1.1/"
   xmlns:cc="http://creativecommons.org/ns#"
   xmlns:rdf="http://www.w3.org/1999/02/22-rdf-syntax-ns#"
   xmlns:svg="http://www.w3.org/2000/svg"
   xmlns="http://www.w3.org/2000/svg"
   width="30.000944"
   height="21.599974"
   viewBox="0 0 30.000944 21.599974"
   fill="none"
   version="1.1"
   id="svg885">
  <metadata
     id="metadata891">
    <rdf:RDF>
      <cc:Work
         rdf:about="">
        <dc:format>image/svg+xml</dc:format>
        <dc:type
           rdf:resource="http://purl.org/dc/dcmitype/StillImage" />
        <dc:title></dc:title>
      </cc:Work>
    </rdf:RDF>
  </metadata>
  <defs
     id="defs889" />
  <g
     style="fill:none"
     id="g937"
     transform="matrix(0.67867552,0,0,0.74251107,-1.7711307,-7.006893)">
    <path
       fill-rule="evenodd"
       clip-rule="evenodd"
       d="m 35.5188,20.6206 c 0,-1.9872 -1.4347,-3.8196 -3.4,-4.3924 -0.8945,-0.2606 -1.5911,-0.9574 -1.865,-1.8319 -0.5778,-1.8445 -2.4494,-3.2772 -4.5749,-3.2772 H 14.8188 c -0.8284,0 -1.5,0.6716 -1.5,1.5 v 22.7987 c 0,0.8287 0.672,1.5004 1.5007,1.5 l 19.2,-0.0083 c 0.8282,-4e-4 1.4993,-0.6718 1.4993,-1.5 z m 1.5,0 c 0,-2.698 -1.9181,-5.0858 -4.4804,-5.8325 -0.4052,-0.118 -0.727,-0.4374 -0.8532,-0.8402 -0.7759,-2.4768 -3.232,-4.32876 -6.0063,-4.32876 H 14.8188 c -1.6568,0 -3,1.34316 -3,2.99996 v 22.7987 c 0,1.6574 1.344,3.0008 3.0014,3 l 19.2,-0.0083 c 1.6563,-7e-4 2.9986,-1.3437 2.9986,-3 z"
       fill="#474c54"
       id="path923" />
    <path
       d="m 25.4182,26.7081 2.2932,-2.2931 c 0.3905,-0.3906 1.0236,-0.3906 1.4142,0 0.3905,0.3905 0.3905,1.0237 0,1.4142 l -4,4 c -0.3906,0.3905 -1.0237,0.3905 -1.4142,0 l -4,-4 c -0.3906,-0.3905 -0.3906,-1.0237 0,-1.4142 0.3905,-0.3906 1.0236,-0.3906 1.4142,0 l 2.2926,2.2926 v -6.9283 c 0,-0.5523 0.4477,-1 1,-1 0.5523,0 1,0.4477 1,1 z"
       fill="#faa61a"
       id="path925" />
  </g>
</svg>
