<svg width="24" height="24" viewBox="0 0 24 24" fill="none" xmlns="http://www.w3.org/2000/svg">
<path d="M21.3333 20.6665H2.66667C1.194 20.6665 0 19.4732 0 17.9998V5.99983C0 4.5265 1.194 3.33316 2.66667 3.33316H21.3333C22.806 3.33316 24 4.5265 24 5.99983V17.9998C24 19.4732 22.806 20.6665 21.3333 20.6665Z" fill="#003399"/>
<path d="M12.3591 6.05809L12.9251 6.46942H12.2257L12.0091 7.13477L11.7931 6.46942H11.0938L11.6598 6.05809L11.4431 5.39275L12.0091 5.80407L12.5751 5.39275L12.3591 6.05809Z" fill="#FFCC00"/>
<path d="M12.3591 17.6135L12.9251 18.0248H12.2257L12.0091 18.6902L11.7931 18.0248H11.0938L11.6598 17.6135L11.4431 16.9482L12.0091 17.3595L12.5751 16.9482L12.3591 17.6135Z" fill="#FFCC00"/>
<path d="M6.5817 11.8359L7.14772 12.2473H6.44839L6.23173 12.9126L6.01574 12.2473H5.31641L5.88242 11.8359L5.66577 11.1706L6.23178 11.5819L6.7978 11.1706L6.5817 11.8359Z" fill="#FFCC00"/>
<path d="M7.32096 8.97924L7.88697 9.39056H7.18765L6.97099 10.0559L6.75499 9.39056H6.05566L6.62168 8.97924L6.40502 8.31389L6.97104 8.72522L7.53705 8.31389L7.32096 8.97924Z" fill="#FFCC00"/>
<path d="M7.32096 14.7248L7.88697 15.1362H7.18765L6.97099 15.8015L6.75499 15.1362H6.05566L6.62168 14.7248L6.40502 14.0595L6.97104 14.4708L7.53705 14.0595L7.32096 14.7248Z" fill="#FFCC00"/>
<path d="M9.47037 6.83202L10.0364 7.24335H9.33706L9.1204 7.90869L8.90441 7.24335H8.20508L8.77109 6.83202L8.55444 6.16668L9.12045 6.578L9.68647 6.16668L9.47037 6.83202Z" fill="#FFCC00"/>
<path d="M9.47037 16.8774L10.0364 17.2888H9.33706L9.1204 17.9541L8.90441 17.2888H8.20508L8.77109 16.8774L8.55444 16.2121L9.12045 16.6234L9.68647 16.2121L9.47037 16.8774Z" fill="#FFCC00"/>
<path d="M17.4195 11.8359L16.8535 12.2473H17.5528L17.7695 12.9126L17.9855 12.2473H18.6848L18.1188 11.8359L18.3355 11.1706L17.7695 11.5819L17.2034 11.1706L17.4195 11.8359Z" fill="#FFCC00"/>
<path d="M16.6793 8.97924L16.1133 9.39056H16.8126L17.0293 10.0559L17.2453 9.39056H17.9446L17.3786 8.97924L17.5952 8.31389L17.0292 8.72522L16.4632 8.31389L16.6793 8.97924Z" fill="#FFCC00"/>
<path d="M16.6793 14.7248L16.1133 15.1362H16.8126L17.0293 15.8015L17.2453 15.1362H17.9446L17.3786 14.7248L17.5952 14.0595L17.0292 14.4708L16.4632 14.0595L16.6793 14.7248Z" fill="#FFCC00"/>
<path d="M14.5299 6.83202L13.9639 7.24335H14.6632L14.8799 7.90869L15.0959 7.24335H15.7952L15.2292 6.83202L15.4458 6.16668L14.8798 6.578L14.3138 6.16668L14.5299 6.83202Z" fill="#FFCC00"/>
<path d="M14.5299 16.8774L13.9639 17.2888H14.6632L14.8799 17.9541L15.0959 17.2888H15.7952L15.2292 16.8774L15.4458 16.2121L14.8798 16.6234L14.3138 16.2121L14.5299 16.8774Z" fill="#FFCC00"/>
</svg>
