<svg width="11" height="19" viewBox="0 0 11 19" fill="none" xmlns="http://www.w3.org/2000/svg">
<path d="M9.4043 11H6.76758V18.875H3.25195V11H0.404297V7.73047H3.25195V5.26953C3.25195 4.33203 3.42773 3.53516 3.7793 2.87891C4.13086 2.22266 4.62305 1.73047 5.25586 1.40234C5.91211 1.05078 6.66211 0.875 7.50586 0.875C7.88086 0.875 8.2793 0.898438 8.70117 0.945312C9.12305 0.96875 9.45117 1.00391 9.68555 1.05078L10.0371 1.08594V3.86328H8.63086C7.97461 3.86328 7.49414 4.03906 7.18945 4.39062C6.9082 4.71875 6.76758 5.12891 6.76758 5.62109V7.73047H9.89648L9.4043 11Z" fill="#231F20"/>
</svg>
