<svg width="24" height="24" viewBox="0 0 24 24" fill="none" xmlns="http://www.w3.org/2000/svg">
<g clip-path="url(#clip0)">
<path d="M0 8.66675H3.75199L0 6.04011V8.66675Z" fill="#00247D"/>
<path d="M3.10938 20.6667H8.6667V16.7754L3.10938 20.6667Z" fill="#00247D"/>
<path d="M15.333 16.7761V20.6667H20.8897L15.333 16.7761Z" fill="#00247D"/>
<path d="M0 15.3333V17.9607L3.75334 15.3333H0Z" fill="#00247D"/>
<path d="M20.893 3.33352H15.335V7.22485L20.893 3.33352Z" fill="#00247D"/>
<path d="M20.2461 15.3334L24.0001 17.9614V15.3334H20.2461Z" fill="#00247D"/>
<path d="M20.248 8.66675H24.0007V6.0394L20.248 8.66675Z" fill="#00247D"/>
<path d="M8.6667 3.33352H3.10938L8.6667 7.22485V3.33352Z" fill="#00247D"/>
<path d="M16.7598 15.3335L23.2344 19.8674C23.5484 19.5475 23.7731 19.1461 23.8944 18.7014L19.0844 15.3334H16.7598V15.3335Z" fill="#CF1B2B"/>
<path d="M8.66699 15.3334H7.23965L0.765625 19.8667C1.11297 20.2201 1.55828 20.4727 2.05762 20.5901L8.66694 15.9621V15.3334H8.66699Z" fill="#CF1B2B"/>
<path d="M15.334 8.66675H16.7613L23.2354 4.13341C22.888 3.78009 22.4427 3.52743 21.944 3.41007L15.334 8.0381V8.66675Z" fill="#CF1B2B"/>
<path d="M7.2391 8.66675L0.765137 4.13341C0.451133 4.45339 0.226484 4.85476 0.104492 5.29943L4.91451 8.66675H7.2391Z" fill="#CF1B2B"/>
<path d="M24.001 14.0001H14.001V20.6667H15.3343V16.7761L20.891 20.6667H21.3343C22.079 20.6667 22.7516 20.3594 23.2356 19.8674L16.761 15.3334H19.0856L23.8956 18.7015C23.9576 18.4768 24.001 18.2441 24.001 18.0001V17.9615L20.247 15.3335H24.001V14.0001Z" fill="#EEEEEE"/>
<path d="M0 14.0001V15.3334H3.75334L0 17.9608V18.0001C0 18.7274 0.292676 19.3854 0.765352 19.8668L7.23938 15.3334H8.66672V15.9621L2.05734 20.5901C2.25334 20.6361 2.45602 20.6667 2.66666 20.6667H3.10934L8.66666 16.7754V20.6667H10V14.0001H0Z" fill="#EEEEEE"/>
<path d="M24.001 5.99998C24.001 5.27266 23.7083 4.61465 23.2356 4.1333L16.7616 8.66664H15.3343V8.03799L21.9443 3.40996C21.7477 3.36397 21.545 3.33332 21.3343 3.33332H20.8924L15.3343 7.22465V3.33332H14.001V10H24.001V8.66664H20.2483L24.001 6.0393V5.99998Z" fill="#EEEEEE"/>
<path d="M8.66666 3.33332V7.22465L3.10934 3.33332H2.66666C1.92135 3.33332 1.24934 3.64065 0.765352 4.1333L7.23938 8.66664H4.91467L0.104648 5.29932C0.0433594 5.52397 0 5.756 0 5.99998V6.0393L3.75199 8.66664H0V10H10V3.33332H8.66666Z" fill="#EEEEEE"/>
<path d="M14 10.0001V3.33343H9.99996V10.0001H0V12.0001V14.0001H10V20.6667H14V14.0001H24V12.0001V10.0001H14Z" fill="#CF1B2B"/>
</g>
<defs>
<clipPath id="clip0">
<path d="M0 0H24V24H0V0Z" fill="white"/>
</clipPath>
</defs>
</svg>
