<?xml version="1.0" encoding="UTF-8" standalone="no"?>
<svg
   xmlns:dc="http://purl.org/dc/elements/1.1/"
   xmlns:cc="http://creativecommons.org/ns#"
   xmlns:rdf="http://www.w3.org/1999/02/22-rdf-syntax-ns#"
   xmlns:svg="http://www.w3.org/2000/svg"
   xmlns="http://www.w3.org/2000/svg"
   width="105.5319"
   height="107.7225"
   viewBox="0 0 105.5319 107.7225"
   fill="none"
   version="1.1"
   id="svg7500">
  <metadata
     id="metadata7506">
    <rdf:RDF>
      <cc:Work
         rdf:about="">
        <dc:format>image/svg+xml</dc:format>
        <dc:type
           rdf:resource="http://purl.org/dc/dcmitype/StillImage" />
        <dc:title></dc:title>
      </cc:Work>
    </rdf:RDF>
  </metadata>
  <defs
     id="defs7504" />
  <path
     d="M 52.4305,97.3815 11.1232,59.6803 C 5.6437,54.6791 9.1642,44.7361 17.3059,42.2184 l 66.898,-20.6873 c 8.142,-2.5177 14.419,4.3955 11.025,12.1409 L 69.6377,92.0605 c -3.0959,7.064 -12.21,9.882 -17.2072,5.321 z"
     fill="#f9c20a"
     id="path7475" />
  <path
     fill-rule="evenodd"
     clip-rule="evenodd"
     d="m 63.9057,11.9814 c 0,6.6172 -5.2958,11.9815 -11.8285,11.9815 -6.5328,0 -11.8286,-5.3643 -11.8286,-11.9815 C 40.2486,5.3642 45.5444,0 52.0772,0 58.6099,0 63.9057,5.3642 63.9057,11.9814 Z m -4.9286,0 c 0,3.86 -3.0892,6.9892 -6.8999,6.9892 -3.8108,0 -6.9,-3.1292 -6.9,-6.9892 0,-3.86 3.0892,-6.9892 6.9,-6.9892 3.8107,0 6.8999,3.1292 6.8999,6.9892 z"
     fill="#231f20"
     id="path7477" />
  <path
     fill-rule="evenodd"
     clip-rule="evenodd"
     d="m 46.6996,20.9031 h 13.2109 c 2.5335,0.1539 4.9176,1.2658 6.6802,3.1155 1.7627,1.8497 2.7754,4.3025 2.8376,6.8725 -0.0431,1.9818 -0.6449,3.9098 -1.7343,5.5565 -1.0894,1.6467 -2.6211,2.9435 -4.4142,3.7374 l -4.0356,-4.0878 c 0.7011,0.0181 1.3986,-0.1063 2.0515,-0.3656 0.6529,-0.2594 1.2479,-0.6486 1.75,-1.1445 0.5021,-0.496 0.901,-1.0888 1.1733,-1.7434 0.2724,-0.6547 0.4125,-1.3579 0.4123,-2.0683 -0.025,-1.4269 -0.6048,-2.7862 -1.6135,-3.7826 -1.0087,-0.9964 -2.3647,-1.5495 -3.7736,-1.5391 H 46.6996 c -1.984,0 -3.8869,0.7983 -5.2899,2.2194 -1.4029,1.4211 -2.1911,3.3486 -2.1911,5.3583 v 2.7188 c 0,2.0097 0.7882,3.9372 2.1911,5.3583 1.403,1.4211 3.3059,2.2194 5.2899,2.2194 h 12.5636 v 4.5698 H 46.6996 C 43.5223,47.8926 40.4769,46.6105 38.232,44.333 35.987,42.0554 34.7262,38.9686 34.7262,35.7502 v -2.7188 c 0.005,-3.215 1.2681,-6.2969 3.5125,-8.5703 2.2444,-2.2734 5.2869,-3.5529 8.4609,-3.558 z"
     fill="#231f20"
     id="path7479" />
  <path
     fill-rule="evenodd"
     clip-rule="evenodd"
     d="m 100.0089,58.6777 c 0,6.6172 -5.296,11.9814 -11.828,11.9814 -6.533,0 -11.8287,-5.3642 -11.8287,-11.9814 0,-6.6172 5.2957,-11.9814 11.8287,-11.9814 6.532,0 11.828,5.3642 11.828,11.9814 z m -4.928,0 c 0,3.86 -3.089,6.9892 -6.9,6.9892 -3.811,0 -6.9,-3.1292 -6.9,-6.9892 0,-3.86 3.089,-6.9892 6.9,-6.9892 3.811,0 6.9,3.1292 6.9,6.9892 z"
     fill="#231f20"
     id="path7481" />
  <path
     fill-rule="evenodd"
     clip-rule="evenodd"
     d="m 82.8029,67.5994 h 13.211 c 2.534,0.1539 4.918,1.2658 6.68,3.1155 1.763,1.8497 2.776,4.3024 2.838,6.8725 -0.043,1.9821 -0.645,3.9101 -1.734,5.5561 -1.09,1.647 -2.621,2.944 -4.415,3.738 l -4.035,-4.088 c 0.701,0.018 1.398,-0.106 2.051,-0.366 0.653,-0.259 1.248,-0.648 1.75,-1.144 0.502,-0.496 0.901,-1.089 1.174,-1.744 0.272,-0.654 0.412,-1.357 0.412,-2.0678 -0.025,-1.4269 -0.605,-2.7862 -1.614,-3.7826 -1.008,-0.9965 -2.364,-1.5495 -3.773,-1.5392 h -12.545 c -1.984,0 -3.887,0.7984 -5.2896,2.2195 -1.403,1.4211 -2.1912,3.3486 -2.1912,5.3581 v 2.719 c 0,2.01 0.7882,3.937 2.1912,5.358 1.4026,1.421 3.3056,2.22 5.2896,2.22 h 12.564 v 4.57 h -12.564 c -3.177,-0.006 -6.2225,-1.288 -8.4674,-3.565 -2.2449,-2.278 -3.5058,-5.365 -3.5058,-8.583 v -2.719 c 0.005,-3.2148 1.2681,-6.2968 3.5125,-8.5702 2.2444,-2.2733 5.2867,-3.5528 8.4607,-3.5579 z"
     fill="#231f20"
     id="path7483" />
  <path
     d="m 24.879,60.6597 h -2.8912 c -2.3383,0 -4.2408,1.9271 -4.2408,4.2956 v 0.9908 c -0.9942,0.3217 -1.96,0.7278 -2.8879,1.2142 l -0.6932,-0.7021 c -1.6788,-1.7026 -4.3681,-1.6527 -5.9981,6e-4 l -2.0435,2.0698 c -1.6329,1.6522 -1.6799,4.3753 6e-4,6.0757 l 0.6926,0.7015 c -0.4802,0.9399 -0.881,1.9181 -1.1987,2.9257 h -0.978 c -2.3383,0 -4.24079999,1.927 -4.24079999,4.295 v 2.929 c 0,2.368 1.90249999,4.295 4.24079999,4.295 h 0.9781 c 0.3177,1.007 0.7185,1.986 1.1987,2.926 l -0.6932,0.702 c -1.6794,1.699 -1.6331,4.422 6e-4,6.075 l 2.0436,2.07 c 1.6338,1.658 4.3224,1.699 5.998,0 l 0.6925,-0.702 c 0.928,0.487 1.8938,0.893 2.888,1.214 v 0.991 c 0,2.369 1.9024,4.296 4.2408,4.296 h 2.8912 c 2.3383,0 4.2407,-1.927 4.2407,-4.296 v -0.991 c 0.9941,-0.321 1.96,-0.727 2.8879,-1.214 l 0.6932,0.702 c 1.6788,1.703 4.3681,1.653 5.9981,0 l 2.0434,-2.07 c 1.633,-1.652 1.68,-4.375 -5e-4,-6.076 l -0.6926,-0.701 c 0.4802,-0.94 0.881,-1.918 1.1987,-2.926 h 0.978 c 2.3384,0 4.2409,-1.927 4.2409,-4.295 v -2.929 c 0,-2.368 -1.9025,-4.295 -4.2409,-4.295 H 41.248 C 40.9303,77.224 40.5295,76.2457 40.0493,75.3058 l 0.6931,-0.7021 c 1.6795,-1.6993 1.6332,-4.4227 -5e-4,-6.0757 l -2.0436,-2.0699 c -1.6338,-1.6572 -4.3224,-1.6986 -5.998,6e-4 l -0.6926,0.7014 c -0.9279,-0.4863 -1.8938,-0.8924 -2.8879,-1.2142 v -0.9907 c 0,-2.3684 -1.9024,-4.2955 -4.2408,-4.2955 z m -9.5687,9.3717 c 1.289,-0.7722 2.6764,-1.3556 4.1236,-1.7339 0.596,-0.1557 1.0124,-0.7002 1.0124,-1.3236 v -2.0186 c 0,-0.8609 0.6916,-1.5614 1.5416,-1.5614 h 2.8912 c 0.8499,0 1.5416,0.7005 1.5416,1.5614 v 2.0186 c 0,0.6234 0.4164,1.1679 1.0124,1.3236 1.4471,0.3783 2.8345,0.9617 4.1236,1.7339 0.5304,0.3177 1.2056,0.2313 1.6414,-0.21 l 1.4115,-1.4299 c 0.6086,-0.6172 1.5859,-0.6029 2.1795,-6e-4 l 2.0449,2.0712 c 0.5922,0.5991 0.612,1.5892 5e-4,2.2078 l -1.4121,1.4304 c -0.4357,0.4413 -0.521,1.1253 -0.2074,1.6625 0.7623,1.3056 1.3382,2.7107 1.7117,4.1767 0.1538,0.604 0.6913,1.026 1.3068,1.026 h 1.9926 c 0.85,0 1.5416,0.7 1.5416,1.561 v 2.929 c 0,0.861 -0.6916,1.561 -1.5416,1.561 h -1.9926 c -0.6156,0 -1.153,0.422 -1.3068,1.026 -0.3735,1.466 -0.9494,2.871 -1.7117,4.176 -0.3136,0.538 -0.2283,1.222 0.2074,1.663 l 1.4116,1.43 c 0.6102,0.617 0.5943,1.607 5e-4,2.208 l -2.0446,2.071 c -0.5927,0.601 -1.5702,0.619 -2.1797,0 l -1.412,-1.43 c -0.4357,-0.441 -1.1112,-0.528 -1.6414,-0.21 -1.2891,0.772 -2.6765,1.355 -4.1236,1.734 -0.596,0.156 -1.0124,0.7 -1.0124,1.323 v 2.019 c 0,0.861 -0.6917,1.562 -1.5417,1.562 H 21.988 c -0.85,0 -1.5416,-0.701 -1.5416,-1.562 v -2.018 c 0,-0.624 -0.4164,-1.168 -1.0124,-1.324 -1.4472,-0.378 -2.8346,-0.962 -4.1236,-1.734 -0.5305,-0.318 -1.2058,-0.231 -1.6414,0.21 l -1.4116,1.43 c -0.6085,0.617 -1.5859,0.603 -2.1795,10e-4 l -2.0448,-2.072 c -0.5923,-0.599 -0.612,-1.589 -6e-4,-2.207 l 1.4122,-1.431 c 0.4356,-0.441 0.5209,-1.125 0.2074,-1.662 -0.7624,-1.306 -1.3382,-2.711 -1.7117,-4.177 -0.1539,-0.604 -0.6914,-1.026 -1.3068,-1.026 H 4.6408 c -0.8499,0 -1.5416,-0.7 -1.5416,-1.561 v -2.929 c 0,-0.861 0.6917,-1.561 1.5416,-1.561 h 1.9927 c 0.6155,0 1.1529,-0.422 1.3068,-1.026 0.3735,-1.466 0.9494,-2.871 1.7117,-4.1766 0.3135,-0.5372 0.2282,-1.2212 -0.2074,-1.6625 L 8.033,72.6705 C 7.4228,72.0531 7.4387,71.0634 8.0324,70.4627 l 2.0447,-2.0711 c 0.5927,-0.6012 1.5701,-0.6187 2.1796,-6e-4 l 1.4121,1.4304 c 0.321,0.3251 0.9889,0.601 1.6415,0.21 z"
     fill="#231f20"
     id="path7485" />
  <mask
     id="path-5-outside-1"
     maskUnits="userSpaceOnUse"
     x="20.4961"
     y="81.5947"
     width="48"
     height="49"
     fill="#000000">
    <rect
       fill="#ffffff"
       x="20.496099"
       y="81.594704"
       width="48"
       height="49"
       id="rect7487" />
    <path
       d="m 45.9751,82.9322 h -2.8912 c -2.3383,0 -4.2408,1.9271 -4.2408,4.2956 v 0.9908 c -0.9942,0.3217 -1.96,0.7278 -2.8879,1.2142 L 35.262,88.7307 c -1.6788,-1.7026 -4.3681,-1.6527 -5.9981,6e-4 l -2.0435,2.0698 c -1.6329,1.6522 -1.6799,4.3753 6e-4,6.0757 l 0.6926,0.7015 c -0.4802,0.9399 -0.881,1.9181 -1.1987,2.9257 h -0.978 c -2.3383,0 -4.2408,1.927 -4.2408,4.295 v 2.929 c 0,2.368 1.9025,4.295 4.2408,4.295 h 0.9781 c 0.3177,1.007 0.7185,1.986 1.1987,2.926 l -0.6932,0.702 c -1.6794,1.699 -1.6331,4.422 6e-4,6.075 l 2.0436,2.07 c 1.6338,1.658 4.3224,1.699 5.998,0 l 0.6925,-0.702 c 0.928,0.487 1.8938,0.893 2.888,1.214 v 0.991 c 0,2.369 1.9024,4.296 4.2408,4.296 h 2.8912 c 2.3383,0 4.2407,-1.927 4.2407,-4.296 v -0.991 c 0.9941,-0.321 1.96,-0.727 2.8879,-1.214 l 0.6932,0.702 c 1.6788,1.703 4.3681,1.653 5.9981,0 l 2.0434,-2.07 c 1.633,-1.652 1.68,-4.375 -5e-4,-6.076 l -0.6926,-0.701 c 0.4802,-0.94 0.881,-1.918 1.1987,-2.926 h 0.978 c 2.3384,0 4.2409,-1.927 4.2409,-4.295 v -2.929 c 0,-2.368 -1.9025,-4.295 -4.2409,-4.295 h -0.978 c -0.3177,-1.0075 -0.7185,-1.9858 -1.1987,-2.9257 l 0.6931,-0.7021 c 1.6795,-1.6993 1.6332,-4.4227 -5e-4,-6.0757 l -2.0436,-2.0699 c -1.6338,-1.6572 -4.3224,-1.6986 -5.998,6e-4 l -0.6926,0.7014 C 52.1759,88.9463 51.21,88.5402 50.2159,88.2184 v -0.9907 c 0,-2.3684 -1.9024,-4.2955 -4.2408,-4.2955 z m -9.5687,9.3717 c 1.289,-0.7722 2.6764,-1.3556 4.1236,-1.7339 0.596,-0.1557 1.0124,-0.7002 1.0124,-1.3236 v -2.0186 c 0,-0.8609 0.6916,-1.5614 1.5416,-1.5614 h 2.8912 c 0.8499,0 1.5416,0.7005 1.5416,1.5614 v 2.0186 c 0,0.6234 0.4164,1.1679 1.0124,1.3236 1.4471,0.3783 2.8345,0.9617 4.1236,1.7339 0.5304,0.3177 1.2056,0.2313 1.6414,-0.21 l 1.4115,-1.4299 c 0.6086,-0.6172 1.5859,-0.6029 2.1795,-6e-4 l 2.0449,2.0712 c 0.5922,0.5991 0.612,1.5892 5e-4,2.2078 l -1.4121,1.4304 c -0.4357,0.4413 -0.521,1.1253 -0.2074,1.6625 0.7623,1.3056 1.3382,2.7107 1.7117,4.1767 0.1538,0.604 0.6913,1.026 1.3068,1.026 h 1.9926 c 0.85,0 1.5416,0.7 1.5416,1.561 v 2.929 c 0,0.861 -0.6916,1.561 -1.5416,1.561 h -1.9926 c -0.6156,0 -1.153,0.422 -1.3068,1.026 -0.3735,1.466 -0.9494,2.871 -1.7117,4.176 -0.3136,0.538 -0.2283,1.222 0.2074,1.663 l 1.4116,1.43 c 0.6102,0.617 0.5943,1.607 5e-4,2.208 l -2.0446,2.071 c -0.5927,0.601 -1.5702,0.619 -2.1797,0 l -1.412,-1.43 c -0.4357,-0.441 -1.1112,-0.528 -1.6414,-0.21 -1.2891,0.772 -2.6765,1.355 -4.1236,1.734 -0.596,0.156 -1.0124,0.7 -1.0124,1.323 v 2.019 c 0,0.861 -0.6917,1.562 -1.5417,1.562 h -2.8911 c -0.85,0 -1.5416,-0.701 -1.5416,-1.562 v -2.018 c 0,-0.624 -0.4164,-1.168 -1.0124,-1.324 -1.4472,-0.378 -2.8346,-0.962 -4.1236,-1.734 -0.5305,-0.318 -1.2058,-0.231 -1.6414,0.21 l -1.4116,1.43 c -0.6085,0.617 -1.5859,0.603 -2.1795,0.001 l -2.0448,-2.072 c -0.5923,-0.599 -0.612,-1.589 -6e-4,-2.207 l 1.4122,-1.431 c 0.4356,-0.441 0.5209,-1.125 0.2074,-1.662 -0.7624,-1.306 -1.3382,-2.711 -1.7117,-4.177 -0.1539,-0.604 -0.6914,-1.026 -1.3068,-1.026 h -1.9928 c -0.8499,0 -1.5416,-0.7 -1.5416,-1.561 v -2.929 c 0,-0.861 0.6917,-1.561 1.5416,-1.561 h 1.9927 c 0.6155,0 1.1529,-0.422 1.3068,-1.026 0.3735,-1.466 0.9494,-2.871 1.7117,-4.1766 0.3135,-0.5372 0.2282,-1.2212 -0.2074,-1.6625 L 29.1291,94.943 c -0.6102,-0.6174 -0.5943,-1.6071 -6e-4,-2.2078 l 2.0447,-2.0711 c 0.5927,-0.6012 1.5701,-0.6187 2.1796,-6e-4 l 1.4121,1.4304 c 0.321,0.3251 0.9889,0.601 1.6415,0.21 z"
       id="path7489" />
  </mask>
  <path
     d="m 24.879,60.6597 h -2.8912 c -2.3383,0 -4.2408,1.9271 -4.2408,4.2956 v 0.9908 c -0.9942,0.3217 -1.96,0.7278 -2.8879,1.2142 l -0.6932,-0.7021 c -1.6788,-1.7026 -4.3681,-1.6527 -5.9981,6e-4 l -2.0435,2.0698 c -1.6329,1.6522 -1.6799,4.3753 6e-4,6.0757 l 0.6926,0.7015 c -0.4802,0.9399 -0.881,1.9181 -1.1987,2.9257 h -0.978 c -2.3383,0 -4.24079999,1.927 -4.24079999,4.295 v 2.929 c 0,2.368 1.90249999,4.295 4.24079999,4.295 h 0.9781 c 0.3177,1.007 0.7185,1.986 1.1987,2.926 l -0.6932,0.702 c -1.6794,1.699 -1.6331,4.422 6e-4,6.075 l 2.0436,2.07 c 1.6338,1.658 4.3224,1.699 5.998,0 l 0.6925,-0.702 c 0.928,0.487 1.8938,0.893 2.888,1.214 v 0.991 c 0,2.369 1.9024,4.296 4.2408,4.296 h 2.8912 c 2.3383,0 4.2407,-1.927 4.2407,-4.296 v -0.991 c 0.9941,-0.321 1.96,-0.727 2.8879,-1.214 l 0.6932,0.702 c 1.6788,1.703 4.3681,1.653 5.9981,0 l 2.0434,-2.07 c 1.633,-1.652 1.68,-4.375 -5e-4,-6.076 l -0.6926,-0.701 c 0.4802,-0.94 0.881,-1.918 1.1987,-2.926 h 0.978 c 2.3384,0 4.2409,-1.927 4.2409,-4.295 v -2.929 c 0,-2.368 -1.9025,-4.295 -4.2409,-4.295 H 41.248 C 40.9303,77.224 40.5295,76.2457 40.0493,75.3058 l 0.6931,-0.7021 c 1.6795,-1.6993 1.6332,-4.4227 -5e-4,-6.0757 l -2.0436,-2.0699 c -1.6338,-1.6572 -4.3224,-1.6986 -5.998,6e-4 l -0.6926,0.7014 c -0.9279,-0.4863 -1.8938,-0.8924 -2.8879,-1.2142 v -0.9907 c 0,-2.3684 -1.9024,-4.2955 -4.2408,-4.2955 z m -9.5687,9.3717 c 1.289,-0.7722 2.6764,-1.3556 4.1236,-1.7339 0.596,-0.1557 1.0124,-0.7002 1.0124,-1.3236 v -2.0186 c 0,-0.8609 0.6916,-1.5614 1.5416,-1.5614 h 2.8912 c 0.8499,0 1.5416,0.7005 1.5416,1.5614 v 2.0186 c 0,0.6234 0.4164,1.1679 1.0124,1.3236 1.4471,0.3783 2.8345,0.9617 4.1236,1.7339 0.5304,0.3177 1.2056,0.2313 1.6414,-0.21 l 1.4115,-1.4299 c 0.6086,-0.6172 1.5859,-0.6029 2.1795,-6e-4 l 2.0449,2.0712 c 0.5922,0.5991 0.612,1.5892 5e-4,2.2078 l -1.4121,1.4304 c -0.4357,0.4413 -0.521,1.1253 -0.2074,1.6625 0.7623,1.3056 1.3382,2.7107 1.7117,4.1767 0.1538,0.604 0.6913,1.026 1.3068,1.026 h 1.9926 c 0.85,0 1.5416,0.7 1.5416,1.561 v 2.929 c 0,0.861 -0.6916,1.561 -1.5416,1.561 h -1.9926 c -0.6156,0 -1.153,0.422 -1.3068,1.026 -0.3735,1.466 -0.9494,2.871 -1.7117,4.176 -0.3136,0.538 -0.2283,1.222 0.2074,1.663 l 1.4116,1.43 c 0.6102,0.617 0.5943,1.607 5e-4,2.208 l -2.0446,2.071 c -0.5927,0.601 -1.5702,0.619 -2.1797,0 l -1.412,-1.43 c -0.4357,-0.441 -1.1112,-0.528 -1.6414,-0.21 -1.2891,0.772 -2.6765,1.355 -4.1236,1.734 -0.596,0.156 -1.0124,0.7 -1.0124,1.323 v 2.019 c 0,0.861 -0.6917,1.562 -1.5417,1.562 H 21.988 c -0.85,0 -1.5416,-0.701 -1.5416,-1.562 v -2.018 c 0,-0.624 -0.4164,-1.168 -1.0124,-1.324 -1.4472,-0.378 -2.8346,-0.962 -4.1236,-1.734 -0.5305,-0.318 -1.2058,-0.231 -1.6414,0.21 l -1.4116,1.43 c -0.6085,0.617 -1.5859,0.603 -2.1795,10e-4 l -2.0448,-2.072 c -0.5923,-0.599 -0.612,-1.589 -6e-4,-2.207 l 1.4122,-1.431 c 0.4356,-0.441 0.5209,-1.125 0.2074,-1.662 -0.7624,-1.306 -1.3382,-2.711 -1.7117,-4.177 -0.1539,-0.604 -0.6914,-1.026 -1.3068,-1.026 H 4.6408 c -0.8499,0 -1.5416,-0.7 -1.5416,-1.561 v -2.929 c 0,-0.861 0.6917,-1.561 1.5416,-1.561 h 1.9927 c 0.6155,0 1.1529,-0.422 1.3068,-1.026 0.3735,-1.466 0.9494,-2.871 1.7117,-4.1766 0.3135,-0.5372 0.2282,-1.2212 -0.2074,-1.6625 L 8.033,72.6705 C 7.4228,72.0531 7.4387,71.0634 8.0324,70.4627 l 2.0447,-2.0711 c 0.5927,-0.6012 1.5701,-0.6187 2.1796,-6e-4 l 1.4121,1.4304 c 0.321,0.3251 0.9889,0.601 1.6415,0.21 z"
     fill="#231f20"
     id="path7492" />
  <path
     d="m 45.9751,82.9322 h -2.8912 c -2.3383,0 -4.2408,1.9271 -4.2408,4.2956 v 0.9908 c -0.9942,0.3217 -1.96,0.7278 -2.8879,1.2142 L 35.262,88.7307 c -1.6788,-1.7026 -4.3681,-1.6527 -5.9981,6e-4 l -2.0435,2.0698 c -1.6329,1.6522 -1.6799,4.3753 6e-4,6.0757 l 0.6926,0.7015 c -0.4802,0.9399 -0.881,1.9181 -1.1987,2.9257 h -0.978 c -2.3383,0 -4.2408,1.927 -4.2408,4.295 v 2.929 c 0,2.368 1.9025,4.295 4.2408,4.295 h 0.9781 c 0.3177,1.007 0.7185,1.986 1.1987,2.926 l -0.6932,0.702 c -1.6794,1.699 -1.6331,4.422 6e-4,6.075 l 2.0436,2.07 c 1.6338,1.658 4.3224,1.699 5.998,0 l 0.6925,-0.702 c 0.928,0.487 1.8938,0.893 2.888,1.214 v 0.991 c 0,2.369 1.9024,4.296 4.2408,4.296 h 2.8912 c 2.3383,0 4.2407,-1.927 4.2407,-4.296 v -0.991 c 0.9941,-0.321 1.96,-0.727 2.8879,-1.214 l 0.6932,0.702 c 1.6788,1.703 4.3681,1.653 5.9981,0 l 2.0434,-2.07 c 1.633,-1.652 1.68,-4.375 -5e-4,-6.076 l -0.6926,-0.701 c 0.4802,-0.94 0.881,-1.918 1.1987,-2.926 h 0.978 c 2.3384,0 4.2409,-1.927 4.2409,-4.295 v -2.929 c 0,-2.368 -1.9025,-4.295 -4.2409,-4.295 h -0.978 c -0.3177,-1.0075 -0.7185,-1.9858 -1.1987,-2.9257 l 0.6931,-0.7021 c 1.6795,-1.6993 1.6332,-4.4227 -5e-4,-6.0757 l -2.0436,-2.0699 c -1.6338,-1.6572 -4.3224,-1.6986 -5.998,6e-4 l -0.6926,0.7014 C 52.1759,88.9463 51.21,88.5402 50.2159,88.2184 v -0.9907 c 0,-2.3684 -1.9024,-4.2955 -4.2408,-4.2955 z m -9.5687,9.3717 c 1.289,-0.7722 2.6764,-1.3556 4.1236,-1.7339 0.596,-0.1557 1.0124,-0.7002 1.0124,-1.3236 v -2.0186 c 0,-0.8609 0.6916,-1.5614 1.5416,-1.5614 h 2.8912 c 0.8499,0 1.5416,0.7005 1.5416,1.5614 v 2.0186 c 0,0.6234 0.4164,1.1679 1.0124,1.3236 1.4471,0.3783 2.8345,0.9617 4.1236,1.7339 0.5304,0.3177 1.2056,0.2313 1.6414,-0.21 l 1.4115,-1.4299 c 0.6086,-0.6172 1.5859,-0.6029 2.1795,-6e-4 l 2.0449,2.0712 c 0.5922,0.5991 0.612,1.5892 5e-4,2.2078 l -1.4121,1.4304 c -0.4357,0.4413 -0.521,1.1253 -0.2074,1.6625 0.7623,1.3056 1.3382,2.7107 1.7117,4.1767 0.1538,0.604 0.6913,1.026 1.3068,1.026 h 1.9926 c 0.85,0 1.5416,0.7 1.5416,1.561 v 2.929 c 0,0.861 -0.6916,1.561 -1.5416,1.561 h -1.9926 c -0.6156,0 -1.153,0.422 -1.3068,1.026 -0.3735,1.466 -0.9494,2.871 -1.7117,4.176 -0.3136,0.538 -0.2283,1.222 0.2074,1.663 l 1.4116,1.43 c 0.6102,0.617 0.5943,1.607 5e-4,2.208 l -2.0446,2.071 c -0.5927,0.601 -1.5702,0.619 -2.1797,0 l -1.412,-1.43 c -0.4357,-0.441 -1.1112,-0.528 -1.6414,-0.21 -1.2891,0.772 -2.6765,1.355 -4.1236,1.734 -0.596,0.156 -1.0124,0.7 -1.0124,1.323 v 2.019 c 0,0.861 -0.6917,1.562 -1.5417,1.562 h -2.8911 c -0.85,0 -1.5416,-0.701 -1.5416,-1.562 v -2.018 c 0,-0.624 -0.4164,-1.168 -1.0124,-1.324 -1.4472,-0.378 -2.8346,-0.962 -4.1236,-1.734 -0.5305,-0.318 -1.2058,-0.231 -1.6414,0.21 l -1.4116,1.43 c -0.6085,0.617 -1.5859,0.603 -2.1795,0.001 l -2.0448,-2.072 c -0.5923,-0.599 -0.612,-1.589 -6e-4,-2.207 l 1.4122,-1.431 c 0.4356,-0.441 0.5209,-1.125 0.2074,-1.662 -0.7624,-1.306 -1.3382,-2.711 -1.7117,-4.177 -0.1539,-0.604 -0.6914,-1.026 -1.3068,-1.026 h -1.9928 c -0.8499,0 -1.5416,-0.7 -1.5416,-1.561 v -2.929 c 0,-0.861 0.6917,-1.561 1.5416,-1.561 h 1.9927 c 0.6155,0 1.1529,-0.422 1.3068,-1.026 0.3735,-1.466 0.9494,-2.871 1.7117,-4.1766 0.3135,-0.5372 0.2282,-1.2212 -0.2074,-1.6625 L 29.1291,94.943 c -0.6102,-0.6174 -0.5943,-1.6071 -6e-4,-2.2078 l 2.0447,-2.0711 c 0.5927,-0.6012 1.5701,-0.6187 2.1796,-6e-4 l 1.4121,1.4304 c 0.321,0.3251 0.9889,0.601 1.6415,0.21 z"
     stroke="#231f20"
     stroke-width="0.8"
     mask="url(#path-5-outside-1)"
     id="path7494"
     transform="translate(-21.0961,-22.2725)" />
  <path
     d="m 23.4329,73.838 c -5.5269,0 -10.0231,4.5545 -10.0231,10.1525 0,5.599 4.4962,10.153 10.0231,10.153 5.5269,0 10.0232,-4.554 10.0232,-10.153 0,-5.598 -4.4963,-10.1525 -10.0232,-10.1525 z m 0,17.5715 c -4.0385,0 -7.3239,-3.328 -7.3239,-7.419 0,-4.09 3.2855,-7.4183 7.3239,-7.4183 4.0384,0 7.3239,3.3283 7.3239,7.4183 0,4.091 -3.2854,7.419 -7.3239,7.419 z"
     fill="#231f20"
     id="path7496" />
  <path
     fill-rule="evenodd"
     clip-rule="evenodd"
     d="m 23.4345,73.4384 c -5.7526,0 -10.4232,4.7381 -10.4232,10.5531 0,5.814 4.6706,10.552 10.4232,10.552 5.7526,0 10.4231,-4.738 10.4231,-10.552 0,-5.815 -4.6705,-10.5531 -10.4231,-10.5531 z m 0,17.5711 c -3.8128,0 -6.9239,-3.144 -6.9239,-7.018 0,-3.875 3.1112,-7.0189 6.9239,-7.0189 3.8126,0 6.9239,3.1439 6.9239,7.0189 0,3.874 -3.1112,7.018 -6.9239,7.018 z m -10.0232,-7.018 c 0,-5.599 4.4963,-10.1531 10.0232,-10.1531 5.5268,0 10.0231,4.5541 10.0231,10.1531 0,5.598 -4.4963,10.152 -10.0231,10.152 -5.5269,0 -10.0232,-4.554 -10.0232,-10.152 z m 2.6993,0 c 0,4.09 3.2854,7.418 7.3239,7.418 4.0385,0 7.3239,-3.328 7.3239,-7.418 0,-4.091 -3.2855,-7.4189 -7.3239,-7.4189 -4.0384,0 -7.3239,3.3279 -7.3239,7.4189 z"
     fill="#231f20"
     id="path7498" />
</svg>
