<?xml version="1.0" encoding="UTF-8" standalone="no"?>
<svg
   xmlns:dc="http://purl.org/dc/elements/1.1/"
   xmlns:cc="http://creativecommons.org/ns#"
   xmlns:rdf="http://www.w3.org/1999/02/22-rdf-syntax-ns#"
   xmlns:svg="http://www.w3.org/2000/svg"
   xmlns="http://www.w3.org/2000/svg"
   width="138.41934"
   height="90.859398"
   viewBox="0 0 138.41934 90.859397"
   fill="none"
   version="1.1"
   id="svg6796">
  <metadata
     id="metadata6800">
    <rdf:RDF>
      <cc:Work
         rdf:about="">
        <dc:format>image/svg+xml</dc:format>
        <dc:type
           rdf:resource="http://purl.org/dc/dcmitype/StillImage" />
        <dc:title></dc:title>
      </cc:Work>
    </rdf:RDF>
  </metadata>
  <g
     style="mix-blend-mode:multiply"
     id="g6779"
     transform="matrix(1,0,0,1.1471766,-9.2126625,-43.478423)">
    <path
       d="M 68.8085,40.3353 39.0321,57.1274 c -1.7919,1.0105 -1.0756,3.742 0.9813,3.742 l 53.38,-4e-4 c 1.9477,0 2.7473,-2.5008 1.1604,-3.6297 L 70.9502,40.4475 c -0.6316,-0.4494 -1.4663,-0.4931 -2.1417,-0.1122 z"
       fill="#f9c20a"
       id="path6777" />
  </g>
  <path
     fill-rule="evenodd"
     clip-rule="evenodd"
     d="M 70.567537,0.88037166 32.950837,28.539832 c -3.5132,2.583327 -1.902299,8.774869 2.2832,8.774869 h 2.2153 v 34.346696 h -0.0493 c -3.48,0 -6.3011,7.975172 -6.3011,11.927195 0,3.952024 2.8211,7.154941 6.3011,7.154941 h 1.0091 v -4.769961 h -1.0091 c -1.16,0 -2.1003,-1.068021 -2.1003,-2.38498 0,-1.318106 0.9403,-7.156087 2.1003,-7.156087 h 68.052303 c 1.16,0 2.1,5.837981 2.1,7.156087 0,1.316959 -0.94,2.38498 -2.1,2.38498 H 41.769736 v 4.769961 h 63.682604 c 3.48,0 6.301,-3.202917 6.301,-7.154941 0,-3.791418 -2.596,-11.664491 -5.88,-11.911134 V 41.133996 h -4.201 V 71.661397 H 89.812537 V 41.133996 H 85.611838 V 71.661397 H 73.757737 V 41.133996 H 69.556938 V 71.661397 H 57.702837 V 41.133996 h -4.200701 v 30.527401 h -11.8521 V 37.314701 h 11.8521 v 0.0029 h 4.200701 v -0.0029 h 11.854101 v 0.0029 h 4.200799 v -0.0029 h 11.854101 v 0.0029 h 4.200699 v -0.0029 h 11.859803 v 0.0029 h 4.201 v -0.0029 h 2.429 c 4.126,0 5.78,-6.049177 2.379,-8.702482 L 75.229438,0.95287322 c -1.3985,-1.09119437 -3.237701,-1.11975907 -4.661901,-0.0725016 z M 35.234037,32.544281 72.850638,4.884821 108.30234,32.544281 Z"
     fill="#231f20"
     id="path6781"
     style="stroke-width:1.07106" />
  <path
     fill-rule="evenodd"
     clip-rule="evenodd"
     d="m 85.612638,37.318027 v -0.0029 H 73.758537 v 0.0029 h -4.200799 v -0.0029 H 57.703637 v 0.0029 h -4.2007 v -0.0029 h -11.8521 v 34.347385 h 11.8521 V 41.134455 h 4.2007 V 71.662544 H 69.557738 V 41.134455 h 4.200799 V 71.662544 H 85.612638 V 41.134455 h 4.200699 V 71.662544 H 101.67334 V 41.134455 h 4.201 v 30.54415 c 3.284,0.245496 5.88,8.118569 5.88,11.909987 0,3.952024 -2.821,7.156088 -6.301,7.156088 H 41.770536 v -4.771108 h 63.682804 c 1.16,0 2.1,-1.068021 2.1,-2.38498 0,-1.316958 -0.94,-7.156087 -2.1,-7.156087 H 37.400937 c -1.1601,0 -2.1004,5.839129 -2.1004,7.156087 0,1.316959 0.9403,2.38498 2.1003,2.38498 h 1.0091 v 4.771108 h -1.0091 c -3.48,0 -6.3011,-3.204064 -6.3011,-7.156088 0,-3.952023 2.8211,-11.926048 6.3012,-11.926048 h 0.0492 V 37.315159 h -2.2153 c -4.1855,0 -5.7964,-6.191541 -2.2831,-8.774868 l 37.6166,-27.65946047 c 1.4243,-1.04725751 3.263401,-1.01869281 4.6619,0.0723869 L 110.68234,28.612678 c 3.4,2.653305 1.747,8.702481 -2.379,8.702481 h -2.429 v 0.0029 h -4.201 v -0.0029 H 89.813338 v 0.0029 z m 4.300699,0.11185 v 0.0029 h -4.4007 v -0.0029 h -11.6541 v 0.0029 h -4.400799 v -0.0029 H 57.803637 v 0.0029 h -4.4007 v -0.0029 H 41.750838 v 34.11795 h 11.652098 v -30.52809 h 4.400701 v 30.52809 h 11.654101 v -30.52809 h 4.4008 v 30.52809 h 11.6541 v -30.52809 h 4.4007 v 30.52809 h 11.660002 v -30.52809 h 4.401 v 30.553328 c 0.82,0.09636 1.588,0.644713 2.276,1.456914 0.715,0.843175 1.352,1.980027 1.885,3.223566 1.064,2.483638 1.719,5.416968 1.719,7.335047 0,4.016266 -2.867,7.270806 -6.401,7.270806 H 41.670538 v -5.000543 h 63.782802 c 1.105,0 2,-1.017546 2,-2.270263 0,-0.643566 -0.232,-2.421689 -0.612,-4.04265 -0.189,-0.808759 -0.413,-1.570485 -0.66,-2.128013 -0.123,-0.279911 -0.25,-0.501316 -0.377,-0.651596 -0.127,-0.151427 -0.245,-0.219111 -0.351,-0.219111 H 37.400937 c -0.1066,0 -0.2238,0.06768 -0.3515,0.219111 -0.1269,0.15028 -0.2534,0.371685 -0.3769,0.651596 -0.2467,0.557528 -0.4709,1.319254 -0.6603,2.128013 -0.3791,1.620961 -0.6117,3.399084 -0.6117,4.04265 0,1.252717 0.8946,2.270263 2.000301,2.270263 h 1.109099 v 5.000543 h -1.109099 c -3.5342,0 -6.4011,-3.25454 -6.4011,-7.270806 0,-1.999528 0.711399,-4.999395 1.8571,-7.497946 0.5733,-1.25157 1.2584,-2.383833 2.023,-3.204064 0.75,-0.805318 1.5845,-1.319253 2.4703,-1.338755 v -34.11795 h -2.1153 c -4.2829,0 -5.9365,-6.339527 -2.3371,-8.986178 L 70.514437,0.78423827 c 1.4579,-1.07203653 3.340401,-1.04278353 4.772001,0.0742223 L 110.73834,28.517921 c 3.484,2.718235 1.787,8.911956 -2.435,8.911956 h -2.329 v 0.0029 h -4.401 v -0.0029 z m -54.6785,-4.885251 H 108.30334 L 72.851438,4.8851651 Z m 0.3413,-0.114718 H 107.97834 L 72.849838,5.0227116 Z"
     fill="#231f20"
     id="path6783"
     style="stroke-width:1.07106" />
  <path
     fill-rule="evenodd"
     clip-rule="evenodd"
     d="m 26.925037,30.077525 v 18.831 c 0,1.1556 -0.9436,2.0924 -2.1077,2.0924 H 5.8486265 c -1.16402,0 -2.107649,-0.9368 -2.107649,-2.0924 0,-1.1555 0.94363,-2.0923 2.10764,-2.0923 H 19.729137 l -19.1118195,-18.973 c -0.82309,-0.8171 -0.82309,-2.1419 0,-2.959 0.82308,-0.8171 2.15757,-0.8171 2.98065,0 l 19.1117695,18.973 v -13.7797 c 0,-1.1555 0.9436,-2.0923 2.1077,-2.0923 1.164001,0 2.107601,0.9368 2.1076,2.0923 z"
     fill="#231f20"
     id="path6785" />
  <path
     fill-rule="evenodd"
     clip-rule="evenodd"
     d="m 138.41934,45.193925 v -18.831 c 0,-1.1555 -0.944,-2.0923 -2.108,-2.0923 h -18.969 c -1.164,0 -2.107,0.9368 -2.107,2.0923 0,1.1556 0.943,2.0924 2.107,2.0924 h 13.881 l -19.112,18.9729 c -0.823,0.8171 -0.823,2.1419 0,2.959 0.823,0.8171 2.158,0.8171 2.981,0 l 19.112,-18.9729 v 13.7796 c 0,1.1556 0.943,2.0924 2.107,2.0924 1.164,0 2.108,-0.9368 2.108,-2.0924 z"
     fill="#f58220"
     id="path6787" />
  <defs
     id="defs6794">
    <clipPath
       id="clip0">
      <rect
         width="160"
         height="160"
         fill="#ffffff"
         transform="translate(0,0.328125)"
         id="rect6791"
         x="0"
         y="0" />
    </clipPath>
  </defs>
</svg>
