<?xml version="1.0" encoding="UTF-8" standalone="no"?>
<svg
   xmlns:dc="http://purl.org/dc/elements/1.1/"
   xmlns:cc="http://creativecommons.org/ns#"
   xmlns:rdf="http://www.w3.org/1999/02/22-rdf-syntax-ns#"
   xmlns:svg="http://www.w3.org/2000/svg"
   xmlns="http://www.w3.org/2000/svg"
   width="137.0009"
   height="107.9062"
   viewBox="0 0 137.0009 107.9062"
   fill="none"
   version="1.1"
   id="svg5402">
  <metadata
     id="metadata5408">
    <rdf:RDF>
      <cc:Work
         rdf:about="">
        <dc:format>image/svg+xml</dc:format>
        <dc:type
           rdf:resource="http://purl.org/dc/dcmitype/StillImage" />
        <dc:title></dc:title>
      </cc:Work>
    </rdf:RDF>
  </metadata>
  <defs
     id="defs5406" />
  <path
     d="m 45.0703,1.9999 c 0,-1.1045 0.8954,-1.9999 2,-1.9999 h 64.0066 c 1.104,0 2,0.8954 2,2 v 33.0986 c 0,1.1045 -0.896,2 -2,2 H 47.0703 c -1.1046,0 -2,-0.8955 -2,-2 z"
     fill="#f9c20a"
     id="path5382" />
  <path
     d="m 45.0703,86.8152 c 0,-1.104 0.8954,-2 2,-2 h 24.2535 c 1.1046,0 2,0.896 2,2 v 19.091 c 0,1.105 -0.8954,2 -2,2 H 47.0703 c -1.1046,0 -2,-0.895 -2,-2 z"
     fill="#faa61a"
     id="path5384" />
  <path
     fill-rule="evenodd"
     clip-rule="evenodd"
     d="M 37.8359,15.1845 V 44.929 h 61.328 V 15.1845 Z m -3,-5 c -1.1045,0 -2,0.8954 -2,2 V 47.929 c 0,1.1046 0.8955,2 2,2 h 67.328 c 1.105,0 2,-0.8954 2,-2 V 12.1845 c 0,-1.1045 -0.895,-2 -2,-2 z"
     fill="#231f20"
     id="path5386" />
  <path
     fill-rule="evenodd"
     clip-rule="evenodd"
     d="m 122.3099,80.1882 h -9.26 c -5.352,0 -9.691,4.339 -9.691,9.691 0,5.352 4.339,9.691 9.691,9.691 h 9.26 c 5.352,0 9.691,-4.339 9.691,-9.691 0,-5.352 -4.339,-9.691 -9.691,-9.691 z m -9.26,-5 c -8.113,0 -14.691,6.578 -14.691,14.691 0,8.113 6.578,14.691 14.691,14.691 h 9.26 c 8.113,0 14.691,-6.578 14.691,-14.691 0,-8.113 -6.578,-14.691 -14.691,-14.691 z"
     fill="#231f20"
     id="path5388" />
  <path
     fill-rule="evenodd"
     clip-rule="evenodd"
     d="m 54.1797,80.1882 v 19.382 H 82.821 v -19.382 z m -3,-5 c -1.1046,0 -2,0.896 -2,2 v 25.382 c 0,1.104 0.8954,2 2,2 H 85.821 c 1.1045,0 2,-0.896 2,-2 v -25.382 c 0,-1.104 -0.8955,-2 -2,-2 z"
     fill="#231f20"
     id="path5390" />
  <path
     fill-rule="evenodd"
     clip-rule="evenodd"
     d="M 23.9505,80.1882 H 14.6908 C 9.3387,80.1882 5,84.5272 5,89.8792 c 0,5.352 4.3387,9.691 9.6908,9.691 h 9.2597 c 5.3521,0 9.6908,-4.339 9.6908,-9.691 0,-5.352 -4.3387,-9.691 -9.6908,-9.691 z m -9.2597,-5 C 6.5773,75.1882 0,81.7662 0,89.8792 c 0,8.113 6.5773,14.691 14.6908,14.691 h 9.2597 c 8.1135,0 14.6908,-6.578 14.6908,-14.691 0,-8.113 -6.5773,-14.691 -14.6908,-14.691 z"
     fill="#231f20"
     id="path5392" />
  <path
     fill-rule="evenodd"
     clip-rule="evenodd"
     d="M 66.916,75.1912 V 49.9296 h 4 v 25.2616 z"
     fill="#231f20"
     id="path5394" />
  <path
     d="M 42.6152,44.3525 H 52.6983 V 51.831 H 42.6152 Z"
     fill="#ffffff"
     id="path5396" />
  <path
     d="m 80.7988,87.0282 h 10.0831 v 5.708 H 80.7988 Z"
     fill="#ffffff"
     id="path5398" />
  <path
     fill-rule="evenodd"
     clip-rule="evenodd"
     d="m 20.1562,64.4169 v 13.1443 h -5 V 63.9169 c 0,-2.4852 2.0148,-4.5 4.5,-4.5 h 94.5197 c 2.485,0 4.5,2.0148 4.5,4.5 v 13.6443 h -5 V 64.4169 Z"
     fill="#231f20"
     id="path5400" />
</svg>
