<?xml version="1.0" encoding="UTF-8" standalone="no"?>
<svg
   xmlns:dc="http://purl.org/dc/elements/1.1/"
   xmlns:cc="http://creativecommons.org/ns#"
   xmlns:rdf="http://www.w3.org/1999/02/22-rdf-syntax-ns#"
   xmlns:svg="http://www.w3.org/2000/svg"
   xmlns="http://www.w3.org/2000/svg"
   width="130.3253"
   height="123.1881"
   viewBox="0 0 130.3253 123.1881"
   fill="none"
   version="1.1"
   id="svg8208">
  <metadata
     id="metadata8214">
    <rdf:RDF>
      <cc:Work
         rdf:about="">
        <dc:format>image/svg+xml</dc:format>
        <dc:type
           rdf:resource="http://purl.org/dc/dcmitype/StillImage" />
        <dc:title></dc:title>
      </cc:Work>
    </rdf:RDF>
  </metadata>
  <defs
     id="defs8212" />
  <path
     d="m 58.2646,91.4581 c 0,6.614 -13.043,11.975 -29.1323,11.975 C 13.043,103.4331 0,98.0721 0,91.4581 0,84.8451 13.043,79.4833 29.1323,79.4833 c 16.0893,0 29.1323,5.3618 29.1323,11.9748 z"
     fill="#f9c20a"
     id="path8186" />
  <path
     fill-rule="evenodd"
     clip-rule="evenodd"
     d="m 41.5827,56.8511 c 0,6.693 -5.5745,12.1188 -12.4511,12.1188 -6.8766,0 -12.4512,-5.4258 -12.4512,-12.1188 0,-6.693 5.5746,-12.1187 12.4512,-12.1187 6.8766,0 12.4511,5.4257 12.4511,12.1187 z m -5.188,0 c 0,3.9043 -3.2518,7.0693 -7.2631,7.0693 -4.0114,0 -7.2632,-3.165 -7.2632,-7.0693 0,-3.9042 3.2518,-7.0692 7.2632,-7.0692 4.0113,0 7.2631,3.165 7.2631,7.0692 z"
     fill="#231f20"
     id="path8188" />
  <path
     fill-rule="evenodd"
     clip-rule="evenodd"
     d="m 23.471,65.8751 h 13.9062 c 2.6669,0.1556 5.1765,1.2803 7.0319,3.1512 1.8555,1.8709 2.9215,4.3518 2.987,6.9513 -0.0454,2.0045 -0.6789,3.9546 -1.8256,5.6205 -1.1468,1.665 -2.759,2.977 -4.6466,3.78 l -4.248,-4.1347 c 0.738,0.0182 1.4722,-0.1076 2.1595,-0.3699 0.6872,-0.2624 1.3136,-0.656 1.8421,-1.1576 0.5285,-0.5017 0.9484,-1.1013 1.2351,-1.7634 0.2867,-0.6621 0.4342,-1.3734 0.434,-2.0919 -0.0264,-1.4433 -0.6367,-2.8182 -1.6985,-3.826 -1.0617,-1.0079 -2.4892,-1.5673 -3.9722,-1.5568 H 23.471 c -2.0886,0 -4.0916,0.8075 -5.5684,2.2449 -1.4768,1.4374 -2.3065,3.3869 -2.3065,5.4197 v 2.7499 c 0,2.0328 0.8297,3.9828 2.3065,5.4198 1.4768,1.437 3.4798,2.245 5.5684,2.245 h 13.2249 v 4.622 H 23.471 c -3.3446,-0.005 -6.5503,-1.302 -8.9134,-3.606 -2.3631,-2.303 -3.6904,-5.425 -3.6904,-8.6808 v -2.7499 c 0.0053,-3.2519 1.3349,-6.3691 3.6974,-8.6686 2.3625,-2.2994 5.5653,-3.5935 8.9064,-3.5987 z"
     fill="#231f20"
     id="path8190" />
  <path
     d="m 130.3253,62.1076 c 0,6.6135 -13.043,11.9749 -29.132,11.9749 -16.09,0 -29.1327,-5.3614 -29.1327,-11.9749 0,-6.6135 13.0427,-11.9748 29.1327,-11.9748 16.089,0 29.132,5.3613 29.132,11.9748 z"
     fill="#faa61a"
     id="path8192" />
  <path
     fill-rule="evenodd"
     clip-rule="evenodd"
     d="m 113.1783,27.5006 c 0,6.693 -5.574,12.1187 -12.451,12.1187 -6.877,0 -12.451,-5.4257 -12.451,-12.1187 0,-6.6931 5.574,-12.1188 12.451,-12.1188 6.877,0 12.451,5.4257 12.451,12.1188 z m -5.188,0 c 0,3.9042 -3.252,7.0692 -7.263,7.0692 -4.011,0 -7.263,-3.165 -7.263,-7.0692 0,-3.9043 3.252,-7.0693 7.263,-7.0693 4.011,0 7.263,3.165 7.263,7.0693 z"
     fill="#231f20"
     id="path8194" />
  <path
     fill-rule="evenodd"
     clip-rule="evenodd"
     d="m 95.0663,36.5245 h 13.907 c 2.666,0.1557 5.176,1.2803 7.032,3.1512 1.855,1.8709 2.921,4.3518 2.986,6.9513 -0.045,2.0045 -0.678,3.9546 -1.825,5.6202 -1.147,1.6655 -2.759,2.9772 -4.647,3.7802 l -4.248,-4.1346 c 0.738,0.0182 1.473,-0.1076 2.16,-0.3699 0.687,-0.2623 1.313,-0.6559 1.842,-1.1576 0.528,-0.5017 0.948,-1.1012 1.235,-1.7634 0.287,-0.6621 0.434,-1.3734 0.434,-2.0919 -0.026,-1.4433 -0.637,-2.8182 -1.698,-3.826 -1.062,-1.0079 -2.49,-1.5673 -3.973,-1.5568 h -13.205 c -2.088,0 -4.091,0.8075 -5.568,2.2449 -1.477,1.4374 -2.306,3.3869 -2.306,5.4197 v 2.7499 c 0,2.0328 0.829,3.9823 2.306,5.4197 1.477,1.4374 3.48,2.2449 5.568,2.2449 h 13.225 v 4.6222 h -13.225 c -3.344,-0.0051 -6.55,-1.3019 -8.913,-3.6056 -2.363,-2.3036 -3.69,-5.4259 -3.69,-8.6812 v -2.7499 c 0.005,-3.2519 1.335,-6.3691 3.697,-8.6686 2.363,-2.2994 5.565,-3.5935 8.906,-3.5987 z"
     fill="#231f20"
     id="path8196" />
  <path
     d="m 107.8283,114.5671 c 0,4.761 -11.356,8.621 -25.365,8.621 -14.0092,0 -25.3656,-3.86 -25.3656,-8.621 0,-4.761 11.3564,-8.621 25.3656,-8.621 14.009,0 25.365,3.86 25.365,8.621 z"
     fill="#f58220"
     id="path8198" />
  <path
     fill-rule="evenodd"
     clip-rule="evenodd"
     d="m 94.9813,79.9703 c 0,6.6928 -5.575,12.1188 -12.451,12.1188 -6.8769,0 -12.4515,-5.426 -12.4515,-12.1188 0,-6.693 5.5746,-12.1188 12.4515,-12.1188 6.876,0 12.451,5.4258 12.451,12.1188 z m -5.188,0 c 0,3.9038 -3.252,7.0688 -7.263,7.0688 -4.0116,0 -7.2635,-3.165 -7.2635,-7.0688 0,-3.9043 3.2519,-7.0693 7.2635,-7.0693 4.011,0 7.263,3.165 7.263,7.0693 z"
     fill="#231f20"
     id="path8200" />
  <path
     fill-rule="evenodd"
     clip-rule="evenodd"
     d="m 76.8694,88.9941 h 13.9059 c 2.667,0.156 5.177,1.28 7.032,3.151 1.856,1.871 2.922,4.352 2.987,6.952 -0.045,2.004 -0.679,3.954 -1.825,5.62 -1.147,1.665 -2.759,2.977 -4.647,3.78 l -4.248,-4.135 c 0.738,0.019 1.472,-0.107 2.16,-0.369 0.687,-0.263 1.313,-0.656 1.842,-1.158 0.528,-0.502 0.948,-1.101 1.235,-1.763 0.286,-0.663 0.434,-1.374 0.434,-2.092 -0.027,-1.444 -0.637,-2.819 -1.699,-3.826 -1.061,-1.008 -2.489,-1.568 -3.972,-1.557 H 76.8694 c -2.0885,0 -4.0915,0.807 -5.5683,2.245 -1.4769,1.437 -2.3065,3.387 -2.3065,5.419 v 2.75 c 0,2.033 0.8296,3.983 2.3065,5.42 1.4768,1.437 3.4798,2.245 5.5683,2.245 h 13.2249 v 4.622 H 76.8694 c -3.3445,-0.005 -6.5503,-1.302 -8.9134,-3.605 -2.3631,-2.304 -3.6903,-5.426 -3.6903,-8.682 v -2.75 c 0.0053,-3.251 1.3349,-6.369 3.6974,-8.668 2.3625,-2.3 5.5652,-3.594 8.9063,-3.599 z"
     fill="#231f20"
     id="path8202" />
  <path
     d="m 75.0529,19.8026 c 0,10.9367 -9.1091,19.8026 -20.3458,19.8026 -11.2366,0 -20.3457,-8.8659 -20.3457,-19.8026 C 34.3614,8.8659 43.4705,0 54.7071,0 65.9438,0 75.0529,8.8659 75.0529,19.8026 Z"
     fill="#f9c20a"
     id="path8204" />
  <path
     d="m 65.7929,25.9926 c -0.099,-5.2018 -1.831,-11.2947 -6.5817,-14.2809 -1.0145,-0.6261 -2.1031,-1.0115 -3.1424,-1.156 l -0.0247,-2.1192 -2.499,1.0114 -0.0495,1.2282 c -7.126,1.3246 -9.5014,8.9587 -9.8478,15.1239 l -0.0247,0.4816 3.1424,0.1445 v -0.5057 c 0,-4.2626 1.1629,-9.4885 5.0475,-12.0172 0.5196,-0.3612 1.064,-0.6261 1.6083,-0.7947 L 53.0502,25.7759 56.242,23.9938 56.0936,13.0603 c 5.3445,1.2041 6.3095,8.5011 6.5816,12.8842 l 0.0248,0.4335 3.0929,0.1204 z"
     fill="#ffffff"
     id="path8206" />
</svg>
