<?xml version="1.0" encoding="UTF-8" standalone="no"?>
<svg
   xmlns:dc="http://purl.org/dc/elements/1.1/"
   xmlns:cc="http://creativecommons.org/ns#"
   xmlns:rdf="http://www.w3.org/1999/02/22-rdf-syntax-ns#"
   xmlns:svg="http://www.w3.org/2000/svg"
   xmlns="http://www.w3.org/2000/svg"
   width="152.00092"
   height="135"
   viewBox="0 0 152.00092 135"
   fill="none"
   version="1.1"
   id="svg4688">
  <metadata
     id="metadata4694">
    <rdf:RDF>
      <cc:Work
         rdf:about="">
        <dc:format>image/svg+xml</dc:format>
        <dc:type
           rdf:resource="http://purl.org/dc/dcmitype/StillImage" />
        <dc:title></dc:title>
      </cc:Work>
    </rdf:RDF>
  </metadata>
  <defs
     id="defs4692" />
  <path
     d="m 20.78081,47.7211 c -0.1928,-2.2007 1.4349,-4.1406 3.6357,-4.3329 l 98.7424,-8.6256 c 2.201,-0.1923 4.141,1.4359 4.334,3.6366 l 4.431,50.5718 c 0.193,2.2 -1.435,4.14 -3.636,4.332 l -98.7419,8.626 c -2.2008,0.192 -4.1412,-1.436 -4.334,-3.637 z"
     fill="#f9c20a"
     id="path4668" />
  <path
     fill-rule="evenodd"
     clip-rule="evenodd"
     d="m 31.78891,54.2818 c 0,7.0613 -5.7693,12.7857 -12.8863,12.7857 -7.1169,0 -12.8863,-5.7244 -12.8863,-12.7857 0,-7.0614 5.7694,-12.7857 12.8863,-12.7857 7.117,0 12.8863,5.7243 12.8863,12.7857 z m -5.3692,0 c 0,4.1191 -3.3655,7.4583 -7.5171,7.4583 -4.1515,0 -7.517,-3.3392 -7.517,-7.4583 0,-4.1191 3.3655,-7.4583 7.517,-7.4583 4.1516,0 7.5171,3.3392 7.5171,7.4583 z"
     fill="#231f20"
     id="path4670" />
  <path
     fill-rule="evenodd"
     clip-rule="evenodd"
     d="m 13.04421,63.8024 h 14.3923 c 2.76,0.1642 5.3573,1.3507 7.2776,3.3246 1.9203,1.9739 3.0236,4.5913 3.0914,7.3339 -0.047,2.1148 -0.7026,4.1721 -1.8894,5.9294 -1.1869,1.7572 -2.8555,3.1411 -4.809,3.9883 l -4.3965,-4.3622 c 0.7638,0.0192 1.5237,-0.1134 2.235,-0.3902 0.7113,-0.2768 1.3595,-0.6921 1.9065,-1.2213 0.5469,-0.5293 0.9816,-1.1619 1.2782,-1.8604 0.2967,-0.6986 0.4494,-1.449 0.4492,-2.2071 -0.0273,-1.5227 -0.6589,-2.9732 -1.7578,-4.0366 -1.0989,-1.0633 -2.5762,-1.6535 -4.1111,-1.6424 h -13.6664 c -2.1615,0 -4.2345,0.8519 -5.7629,2.3684 -1.5285,1.5165 -2.38712,3.5734 -2.38712,5.718 v 2.9013 c 0,2.1446 0.85862,4.2014 2.38712,5.7179 1.5284,1.5165 3.6014,2.368 5.7629,2.368 h 13.6872 v 4.877 H 13.04421 C 9.58281,92.604 6.26501,91.235 3.81931,88.805 1.37364,86.3746 0,83.0805 0,79.6461 v -2.9013 c 0.00549,-3.4309 1.38155,-6.7196 3.82663,-9.1456 2.44508,-2.426 5.75978,-3.7914 9.21758,-3.7968 z"
     fill="#231f20"
     id="path4672" />
  <path
     fill-rule="evenodd"
     clip-rule="evenodd"
     d="m 145.98391,54.2818 c 0,7.0613 -5.769,12.7857 -12.886,12.7857 -7.117,0 -12.886,-5.7244 -12.886,-12.7857 0,-7.0614 5.769,-12.7857 12.886,-12.7857 7.117,0 12.886,5.7243 12.886,12.7857 z m -5.369,0 c 0,4.1191 -3.365,7.4583 -7.517,7.4583 -4.151,0 -7.517,-3.3392 -7.517,-7.4583 0,-4.1191 3.366,-7.4583 7.517,-7.4583 4.152,0 7.517,3.3392 7.517,7.4583 z"
     fill="#231f20"
     id="path4674" />
  <path
     fill-rule="evenodd"
     clip-rule="evenodd"
     d="m 127.23991,63.8024 h 14.392 c 2.76,0.1642 5.357,1.3507 7.278,3.3246 1.92,1.9739 3.023,4.5913 3.091,7.3339 -0.047,2.1148 -0.703,4.1721 -1.89,5.9294 -1.186,1.7572 -2.855,3.1411 -4.808,3.9883 l -4.397,-4.3622 c 0.764,0.0192 1.524,-0.1134 2.235,-0.3902 0.711,-0.2768 1.36,-0.6921 1.906,-1.2213 0.547,-0.5293 0.982,-1.1619 1.279,-1.8604 0.296,-0.6986 0.449,-1.449 0.449,-2.2071 -0.027,-1.5227 -0.659,-2.9732 -1.758,-4.0366 -1.099,-1.0633 -2.576,-1.6535 -4.111,-1.6424 h -13.666 c -2.162,0 -4.235,0.8519 -5.763,2.3684 -1.529,1.5165 -2.387,3.5734 -2.387,5.718 v 2.9013 c 0,2.1446 0.858,4.2014 2.387,5.7179 1.528,1.5165 3.601,2.368 5.763,2.368 h 13.687 v 4.877 h -13.687 c -3.462,-0.005 -6.78,-1.374 -9.225,-3.804 -2.446,-2.4304 -3.82,-5.7245 -3.82,-9.1589 v -2.9013 c 0.006,-3.4309 1.382,-6.7196 3.827,-9.1456 2.445,-2.426 5.76,-3.7914 9.218,-3.7968 z"
     fill="#231f20"
     id="path4676" />
  <path
     fill-rule="evenodd"
     clip-rule="evenodd"
     d="m 88.88661,12.7857 c 0,7.0614 -5.7694,12.7857 -12.8863,12.7857 -7.1169,0 -12.8863,-5.7243 -12.8863,-12.7857 C 63.11401,5.7244 68.88341,0 76.00031,0 c 7.1169,0 12.8863,5.7244 12.8863,12.7857 z m -5.3693,0 c 0,4.1191 -3.3655,7.4583 -7.517,7.4583 -4.1515,0 -7.517,-3.3392 -7.517,-7.4583 0,-4.1191 3.3655,-7.4583 7.517,-7.4583 4.1515,0 7.517,3.3392 7.517,7.4583 z"
     fill="#231f20"
     id="path4678" />
  <path
     fill-rule="evenodd"
     clip-rule="evenodd"
     d="m 70.14191,22.3063 h 14.3922 c 2.7601,0.1642 5.3574,1.3507 7.2777,3.3246 1.9203,1.9739 3.0235,4.5913 3.0913,7.3339 -0.047,2.1148 -0.7025,4.1721 -1.8894,5.9294 -1.1868,1.7573 -2.8554,3.1411 -4.809,3.9883 l -4.3964,-4.3622 c 0.7638,0.0193 1.5237,-0.1134 2.235,-0.3902 0.7112,-0.2768 1.3595,-0.6921 1.9064,-1.2213 0.547,-0.5293 0.9816,-1.1619 1.2783,-1.8604 0.2967,-0.6986 0.4494,-1.449 0.4492,-2.2071 -0.0273,-1.5227 -0.659,-2.9732 -1.7579,-4.0366 -1.0988,-1.0633 -2.5761,-1.6535 -4.111,-1.6424 h -13.6664 c -2.1615,0 -4.2345,0.8519 -5.763,2.3684 -1.5284,1.5165 -2.3871,3.5734 -2.3871,5.718 V 38.15 c 0,2.1446 0.8587,4.2014 2.3871,5.7179 1.5285,1.5165 3.6015,2.3685 5.763,2.3685 h 13.6871 v 4.8765 h -13.6871 c -3.4615,-0.0054 -6.7793,-1.3736 -9.2249,-3.804 -2.4457,-2.4304 -3.8194,-5.7245 -3.8193,-9.1589 v -2.9013 c 0.0054,-3.4309 1.3815,-6.7196 3.8266,-9.1456 2.4451,-2.426 5.7597,-3.7913 9.2176,-3.7968 z"
     fill="#231f20"
     id="path4680" />
  <path
     d="m 68.55861,90.064 15.328,-1.339 0.7368,8.409 -15.328,1.339 z"
     fill="#f9c20a"
     id="path4682" />
  <path
     fill-rule="evenodd"
     clip-rule="evenodd"
     d="m 88.88661,96.672 c 0,7.062 -5.7694,12.786 -12.8863,12.786 -7.1169,0 -12.8863,-5.724 -12.8863,-12.786 0,-7.061 5.7694,-12.7853 12.8863,-12.7853 7.1169,0 12.8863,5.7243 12.8863,12.7853 z m -5.3693,0 c 0,4.12 -3.3655,7.459 -7.517,7.459 -4.1515,0 -7.517,-3.339 -7.517,-7.459 0,-4.119 3.3655,-7.458 7.517,-7.458 4.1515,0 7.517,3.339 7.517,7.458 z"
     fill="#231f20"
     id="path4684" />
  <path
     fill-rule="evenodd"
     clip-rule="evenodd"
     d="m 70.14191,106.193 h 14.3922 c 2.7601,0.164 5.3574,1.351 7.2777,3.325 1.9203,1.974 3.0235,4.591 3.0913,7.333 -0.047,2.115 -0.7025,4.173 -1.8894,5.93 -1.1868,1.757 -2.8554,3.141 -4.809,3.988 l -4.3964,-4.362 c 0.7638,0.019 1.5237,-0.113 2.235,-0.39 0.7112,-0.277 1.3595,-0.692 1.9064,-1.222 0.547,-0.529 0.9816,-1.161 1.2783,-1.86 0.2967,-0.698 0.4494,-1.449 0.4492,-2.207 -0.0273,-1.523 -0.659,-2.973 -1.7579,-4.037 -1.0988,-1.063 -2.5761,-1.653 -4.111,-1.642 h -13.6664 c -2.1615,0 -4.2345,0.852 -5.763,2.368 -1.5284,1.517 -2.3871,3.574 -2.3871,5.718 v 2.902 c 0,2.144 0.8587,4.201 2.3871,5.718 1.5285,1.516 3.6015,2.368 5.763,2.368 h 13.6871 V 135 h -13.6871 c -3.4615,-0.006 -6.7793,-1.374 -9.2249,-3.804 -2.4457,-2.431 -3.8194,-5.725 -3.8193,-9.159 v -2.902 c 0.0054,-3.43 1.3815,-6.719 3.8266,-9.145 2.4451,-2.426 5.7597,-3.792 9.2176,-3.797 z"
     fill="#231f20"
     id="path4686" />
</svg>
