<svg width="17" height="16" viewBox="0 0 17 16" fill="none" xmlns="http://www.w3.org/2000/svg">
<path d="M5.37305 5.02734C6.16992 4.23047 7.13086 3.83203 8.25586 3.83203C9.38086 3.83203 10.3301 4.23047 11.1035 5.02734C11.9004 5.80078 12.2988 6.75 12.2988 7.875C12.2988 9 11.9004 9.96094 11.1035 10.7578C10.3301 11.5312 9.38086 11.918 8.25586 11.918C7.13086 11.918 6.16992 11.5312 5.37305 10.7578C4.59961 9.96094 4.21289 9 4.21289 7.875C4.21289 6.75 4.59961 5.80078 5.37305 5.02734ZM6.39258 9.73828C6.9082 10.2539 7.5293 10.5117 8.25586 10.5117C8.98242 10.5117 9.60352 10.2539 10.1191 9.73828C10.6348 9.22266 10.8926 8.60156 10.8926 7.875C10.8926 7.14844 10.6348 6.52734 10.1191 6.01172C9.60352 5.49609 8.98242 5.23828 8.25586 5.23828C7.5293 5.23828 6.9082 5.49609 6.39258 6.01172C5.87695 6.52734 5.61914 7.14844 5.61914 7.875C5.61914 8.60156 5.87695 9.22266 6.39258 9.73828ZM13.1074 3.02344C13.2949 3.1875 13.3887 3.39844 13.3887 3.65625C13.3887 3.91406 13.2949 4.13672 13.1074 4.32422C12.9434 4.51172 12.7324 4.60547 12.4746 4.60547C12.2168 4.60547 11.9941 4.51172 11.8066 4.32422C11.6191 4.13672 11.5254 3.91406 11.5254 3.65625C11.5254 3.39844 11.6191 3.1875 11.8066 3.02344C11.9941 2.83594 12.2168 2.74219 12.4746 2.74219C12.7324 2.74219 12.9434 2.83594 13.1074 3.02344ZM16.0957 4.64062C16.1191 5.27344 16.1309 6.35156 16.1309 7.875C16.1309 9.39844 16.1191 10.4766 16.0957 11.1094C16.0254 12.5391 15.5918 13.6523 14.7949 14.4492C14.0215 15.2227 12.9199 15.6328 11.4902 15.6797C10.8574 15.7266 9.7793 15.75 8.25586 15.75C6.73242 15.75 5.6543 15.7266 5.02148 15.6797C3.5918 15.6094 2.49023 15.1875 1.7168 14.4141C1.41211 14.1328 1.16602 13.8047 0.978516 13.4297C0.791016 13.0547 0.650391 12.6914 0.556641 12.3398C0.486328 11.9883 0.451172 11.5781 0.451172 11.1094C0.404297 10.4766 0.380859 9.39844 0.380859 7.875C0.380859 6.35156 0.404297 5.26172 0.451172 4.60547C0.521484 3.19922 0.943359 2.10938 1.7168 1.33594C2.49023 0.539062 3.5918 0.105469 5.02148 0.0351562C5.6543 0.0117188 6.73242 0 8.25586 0C9.7793 0 10.8574 0.0117188 11.4902 0.0351562C12.9199 0.105469 14.0215 0.539062 14.7949 1.33594C15.5918 2.10938 16.0254 3.21094 16.0957 4.64062ZM14.4082 12.5156C14.4785 12.3281 14.5371 12.0938 14.584 11.8125C14.6309 11.5078 14.666 11.1562 14.6895 10.7578C14.7129 10.3359 14.7246 9.99609 14.7246 9.73828C14.7246 9.48047 14.7246 9.11719 14.7246 8.64844C14.7246 8.17969 14.7246 7.92188 14.7246 7.875C14.7246 7.80469 14.7246 7.54688 14.7246 7.10156C14.7246 6.63281 14.7246 6.26953 14.7246 6.01172C14.7246 5.75391 14.7129 5.42578 14.6895 5.02734C14.666 4.60547 14.6309 4.25391 14.584 3.97266C14.5371 3.66797 14.4785 3.42188 14.4082 3.23438C14.127 2.50781 13.623 2.00391 12.8965 1.72266C12.709 1.65234 12.4629 1.59375 12.1582 1.54688C11.877 1.5 11.5254 1.46484 11.1035 1.44141C10.7051 1.41797 10.377 1.40625 10.1191 1.40625C9.88477 1.40625 9.52148 1.40625 9.0293 1.40625C8.56055 1.40625 8.30273 1.40625 8.25586 1.40625C8.20898 1.40625 7.95117 1.40625 7.48242 1.40625C7.01367 1.40625 6.65039 1.40625 6.39258 1.40625C6.13477 1.40625 5.79492 1.41797 5.37305 1.44141C4.97461 1.46484 4.62305 1.5 4.31836 1.54688C4.03711 1.59375 3.80273 1.65234 3.61523 1.72266C2.88867 2.00391 2.38477 2.50781 2.10352 3.23438C2.0332 3.42188 1.97461 3.66797 1.92773 3.97266C1.88086 4.25391 1.8457 4.60547 1.82227 5.02734C1.79883 5.42578 1.78711 5.75391 1.78711 6.01172C1.78711 6.24609 1.78711 6.60938 1.78711 7.10156C1.78711 7.57031 1.78711 7.82812 1.78711 7.875C1.78711 7.96875 1.78711 8.19141 1.78711 8.54297C1.78711 8.87109 1.78711 9.15234 1.78711 9.38672C1.78711 9.59766 1.78711 9.87891 1.78711 10.2305C1.81055 10.582 1.83398 10.8867 1.85742 11.1445C1.88086 11.3789 1.91602 11.625 1.96289 11.8828C2.00977 12.1406 2.05664 12.3516 2.10352 12.5156C2.4082 13.2422 2.91211 13.7461 3.61523 14.0273C3.80273 14.0977 4.03711 14.1562 4.31836 14.2031C4.62305 14.25 4.97461 14.2852 5.37305 14.3086C5.79492 14.332 6.12305 14.3438 6.35742 14.3438C6.61523 14.3438 6.97852 14.3438 7.44727 14.3438C7.93945 14.3438 8.20898 14.3438 8.25586 14.3438C8.32617 14.3438 8.58398 14.3438 9.0293 14.3438C9.49805 14.3438 9.86133 14.3438 10.1191 14.3438C10.377 14.3438 10.7051 14.332 11.1035 14.3086C11.5254 14.2852 11.877 14.25 12.1582 14.2031C12.4629 14.1562 12.709 14.0977 12.8965 14.0273C13.623 13.7227 14.127 13.2188 14.4082 12.5156Z" fill="#231F20"/>
</svg>
