<svg width="17" height="17" viewBox="0 0 17 17" fill="none" xmlns="http://www.w3.org/2000/svg">
<path d="M3.86133 16.625H0.591797V6.11328H3.86133V16.625ZM2.24414 4.67188C1.72852 4.67188 1.2832 4.48438 0.908203 4.10938C0.533203 3.73438 0.345703 3.28906 0.345703 2.77344C0.345703 2.25781 0.533203 1.8125 0.908203 1.4375C1.2832 1.0625 1.72852 0.875 2.24414 0.875C2.57227 0.875 2.87695 0.957031 3.1582 1.12109C3.46289 1.28516 3.69727 1.51953 3.86133 1.82422C4.04883 2.10547 4.14258 2.42188 4.14258 2.77344C4.14258 3.10156 4.04883 3.41797 3.86133 3.72266C3.69727 4.00391 3.46289 4.23828 3.1582 4.42578C2.87695 4.58984 2.57227 4.67188 2.24414 4.67188ZM16.0957 16.625H12.8262V11.4922C12.8262 11.0938 12.8145 10.7773 12.791 10.543C12.7676 10.2852 12.709 10.0039 12.6152 9.69922C12.5215 9.37109 12.3457 9.125 12.0879 8.96094C11.8535 8.79688 11.5371 8.71484 11.1387 8.71484C10.3652 8.71484 9.83789 8.96094 9.55664 9.45312C9.29883 9.94531 9.16992 10.6016 9.16992 11.4219V16.625H5.90039V6.11328H9.06445V7.55469H9.09961C9.33398 7.08594 9.7207 6.6875 10.2598 6.35938C10.7988 6.00781 11.4434 5.83203 12.1934 5.83203C12.9902 5.83203 13.6465 5.96094 14.1621 6.21875C14.7012 6.45312 15.0996 6.81641 15.3574 7.30859C15.6387 7.77734 15.8262 8.29297 15.9199 8.85547C16.0371 9.41797 16.0957 10.0859 16.0957 10.8594V16.625Z" fill="#231F20"/>
</svg>
