<svg width="49" height="49" viewBox="0 0 49 49" fill="none" xmlns="http://www.w3.org/2000/svg">
<path fill-rule="evenodd" clip-rule="evenodd" d="M32.2409 27.6872C32.3003 27.2773 32.6808 26.9931 33.0907 27.0525C34.872 27.3107 36.9416 27.8582 38.589 28.7168C40.1844 29.5484 41.6594 30.8251 41.6594 32.6407C41.6594 35.1296 39.6418 37.1472 37.1529 37.1472H33.3965C32.9823 37.1472 32.6465 36.8114 32.6465 36.3972C32.6465 35.983 32.9823 35.6472 33.3965 35.6472H37.1529C38.8134 35.6472 40.1594 34.3012 40.1594 32.6407C40.1594 31.7266 39.3993 30.8307 37.8957 30.047C36.4439 29.2903 34.5504 28.7798 32.8756 28.537C32.4657 28.4776 32.1815 28.0972 32.2409 27.6872Z" fill="#FAA61A"/>
<path fill-rule="evenodd" clip-rule="evenodd" d="M28.9896 13.4472C29.5617 13.2565 30.1964 13.1082 30.8922 13.1082C34.0737 13.1082 36.6509 15.6853 36.6509 18.8668C36.6509 22.0484 34.0737 24.6255 30.8922 24.6255C30.1964 24.6255 29.5617 24.4772 28.9896 24.2865C28.5966 24.1556 28.3843 23.7308 28.5153 23.3379C28.6462 22.9449 29.071 22.7325 29.4639 22.8635C29.9436 23.0234 30.4109 23.1255 30.8922 23.1255C33.2452 23.1255 35.1509 21.2199 35.1509 18.8668C35.1509 16.5138 33.2452 14.6082 30.8922 14.6082C30.4109 14.6082 29.9436 14.7103 29.4639 14.8702C29.071 15.0012 28.6462 14.7888 28.5153 14.3958C28.3843 14.0029 28.5966 13.5781 28.9896 13.4472Z" fill="#FAA61A"/>
<path fill-rule="evenodd" clip-rule="evenodd" d="M20.9275 14.6082C18.5755 14.6082 16.6688 16.5148 16.6688 18.8668C16.6688 21.2189 18.5755 23.1255 20.9275 23.1255C23.2795 23.1255 25.1862 21.2189 25.1862 18.8668C25.1862 16.5148 23.2795 14.6082 20.9275 14.6082ZM15.1688 18.8668C15.1688 15.6864 17.7471 13.1082 20.9275 13.1082C24.108 13.1082 26.6862 15.6864 26.6862 18.8668C26.6862 22.0473 24.108 24.6255 20.9275 24.6255C17.7471 24.6255 15.1688 22.0473 15.1688 18.8668Z" fill="#474C54"/>
<path fill-rule="evenodd" clip-rule="evenodd" d="M14.3862 28.1912C16.563 27.3192 19.1621 26.8821 20.9275 26.8821C22.693 26.8821 25.2921 27.3192 27.4689 28.1912C28.5579 28.6275 29.5883 29.191 30.3585 29.9019C31.1339 30.6175 31.6949 31.5327 31.6949 32.6408C31.6949 35.1297 29.6773 37.1473 27.1884 37.1473H14.6667C12.1778 37.1473 10.1602 35.1297 10.1602 32.6408C10.1602 31.5327 10.7212 30.6175 11.4966 29.9019C12.2668 29.191 13.2972 28.6275 14.3862 28.1912ZM12.5139 31.0042C11.9333 31.54 11.6602 32.0836 11.6602 32.6408C11.6602 34.3013 13.0062 35.6473 14.6667 35.6473H27.1884C28.8489 35.6473 30.1949 34.3013 30.1949 32.6408C30.1949 32.0836 29.9218 31.54 29.3412 31.0042C28.7556 30.4637 27.9085 29.9832 26.9111 29.5836C24.915 28.784 22.5054 28.3821 20.9275 28.3821C19.3497 28.3821 16.9401 28.784 14.944 29.5836C13.9466 29.9832 13.0995 30.4637 12.5139 31.0042Z" fill="#474C54"/>
</svg>
