<svg width="49" height="49" viewBox="0 0 49 49" fill="none" xmlns="http://www.w3.org/2000/svg">
<path fill-rule="evenodd" clip-rule="evenodd" d="M24.7105 37.0917C32.795 37.0917 39.3488 30.538 39.3488 22.4535C39.3488 14.369 32.795 7.81519 24.7105 7.81519C16.626 7.81519 10.0723 14.369 10.0723 22.4535C10.0723 30.538 16.626 37.0917 24.7105 37.0917ZM24.7105 38.5917C33.6235 38.5917 40.8488 31.3664 40.8488 22.4535C40.8488 13.5405 33.6235 6.31519 24.7105 6.31519C15.7976 6.31519 8.57227 13.5405 8.57227 22.4535C8.57227 31.3664 15.7976 38.5917 24.7105 38.5917Z" fill="#474C54"/>
<path fill-rule="evenodd" clip-rule="evenodd" d="M22.029 15.0642C21.9221 15.3139 21.6355 15.4327 21.3833 15.3317L16.1397 13.2308C15.7314 13.0672 15.326 13.4726 15.4896 13.8809L17.5905 19.1245C17.6915 19.3767 17.5727 19.6633 17.323 19.7702L12.1297 21.9925C11.7253 22.1655 11.7253 22.7388 12.1297 22.9118L17.323 25.1341C17.5727 25.241 17.6915 25.5276 17.5905 25.7797L15.4896 31.0234C15.326 31.4317 15.7314 31.837 16.1397 31.6734L21.3833 29.5726C21.6355 29.4716 21.9221 29.5903 22.029 29.84L24.2513 35.0334C24.4243 35.4378 24.9976 35.4378 25.1706 35.0334L27.3929 29.84C27.4998 29.5903 27.7864 29.4716 28.0385 29.5726L33.2822 31.6734C33.6905 31.837 34.0958 31.4317 33.9322 31.0234L31.8314 25.7797C31.7304 25.5276 31.8491 25.241 32.0988 25.1341L37.2922 22.9118C37.6965 22.7388 37.6965 22.1655 37.2922 21.9925L32.0988 19.7702C31.8491 19.6633 31.7304 19.3767 31.8314 19.1245L33.9322 13.8809C34.0958 13.4726 33.6905 13.0672 33.2822 13.2308L28.0385 15.3317C27.7864 15.4327 27.4998 15.3139 27.3929 15.0642L25.1706 9.87092C24.9976 9.46653 24.4243 9.46653 24.2513 9.87092L22.029 15.0642ZM24.7109 12.6095L23.408 15.6543C22.9806 16.6532 21.834 17.1281 20.8255 16.7241L17.7512 15.4924L18.9829 18.5667C19.3869 19.5752 18.912 20.7218 17.9131 21.1492L14.8683 22.4521L17.9131 23.7551C18.912 24.1825 19.3869 25.3291 18.9829 26.3376L17.7512 29.4119L20.8255 28.1802C21.834 27.7762 22.9806 28.2511 23.408 29.2499L24.7109 32.2948L26.0139 29.2499C26.4413 28.2511 27.5879 27.7762 28.5964 28.1802L31.6707 29.4119L30.439 26.3376C30.035 25.3291 30.5099 24.1825 31.5087 23.7551L34.5536 22.4521L31.5087 21.1492C30.5099 20.7218 30.035 19.5752 30.439 18.5667L31.6707 15.4924L28.5964 16.7241C27.5879 17.1281 26.4413 16.6532 26.0139 15.6543L24.7109 12.6095Z" fill="#FAA61A"/>
<path fill-rule="evenodd" clip-rule="evenodd" d="M11.7506 38.3359C12.035 38.0348 12.5097 38.0212 12.8108 38.3055C15.9436 41.2638 20.1221 43.0665 24.71 43.0665C29.2979 43.0665 33.4763 41.2638 36.6091 38.3055C36.9103 38.0212 37.3849 38.0348 37.6693 38.3359C37.9537 38.6371 37.9401 39.1118 37.6389 39.3962C34.2423 42.6035 29.7005 44.5665 24.71 44.5665C19.7194 44.5665 15.1776 42.6035 11.781 39.3962C11.4798 39.1118 11.4662 38.6371 11.7506 38.3359Z" fill="#FAA61A"/>
</svg>
