<svg width="49" height="49" viewBox="0 0 49 49" fill="none" xmlns="http://www.w3.org/2000/svg">
<path fill-rule="evenodd" clip-rule="evenodd" d="M16.9102 19.9873C16.9102 20.5396 17.3579 20.9873 17.9102 20.9873H19.5102C20.0624 20.9873 20.5102 20.5396 20.5102 19.9873C20.5102 19.435 20.0624 18.9873 19.5102 18.9873L17.9102 18.9873C17.3579 18.9873 16.9102 19.435 16.9102 19.9873Z" fill="#FAA61A"/>
<path fill-rule="evenodd" clip-rule="evenodd" d="M22.9102 19.9873C22.9102 20.5396 23.3579 20.9873 23.9102 20.9873H25.5102C26.0624 20.9873 26.5102 20.5396 26.5102 19.9873C26.5102 19.435 26.0624 18.9873 25.5102 18.9873L23.9102 18.9873C23.3579 18.9873 22.9102 19.435 22.9102 19.9873Z" fill="#FAA61A"/>
<path fill-rule="evenodd" clip-rule="evenodd" d="M28.9102 19.9873C28.9102 20.5396 29.3579 20.9873 29.9102 20.9873H31.5102C32.0624 20.9873 32.5102 20.5396 32.5102 19.9873C32.5102 19.435 32.0624 18.9873 31.5102 18.9873L29.9102 18.9873C29.3579 18.9873 28.9102 19.435 28.9102 19.9873Z" fill="#FAA61A"/>
<path fill-rule="evenodd" clip-rule="evenodd" d="M16.9102 19.9873C16.9102 20.5396 17.3579 20.9873 17.9102 20.9873H19.5102C20.0624 20.9873 20.5102 20.5396 20.5102 19.9873C20.5102 19.435 20.0624 18.9873 19.5102 18.9873L17.9102 18.9873C17.3579 18.9873 16.9102 19.435 16.9102 19.9873Z" fill="#FAA61A"/>
<path fill-rule="evenodd" clip-rule="evenodd" d="M22.9102 19.9873C22.9102 20.5396 23.3579 20.9873 23.9102 20.9873H25.5102C26.0624 20.9873 26.5102 20.5396 26.5102 19.9873C26.5102 19.435 26.0624 18.9873 25.5102 18.9873L23.9102 18.9873C23.3579 18.9873 22.9102 19.435 22.9102 19.9873Z" fill="#FAA61A"/>
<path fill-rule="evenodd" clip-rule="evenodd" d="M28.9102 19.9873C28.9102 20.5396 29.3579 20.9873 29.9102 20.9873H31.5102C32.0624 20.9873 32.5102 20.5396 32.5102 19.9873C32.5102 19.435 32.0624 18.9873 31.5102 18.9873L29.9102 18.9873C29.3579 18.9873 28.9102 19.435 28.9102 19.9873Z" fill="#FAA61A"/>
<path fill-rule="evenodd" clip-rule="evenodd" d="M16.9102 24.7873C16.9102 25.3396 17.3579 25.7873 17.9102 25.7873H19.5102C20.0624 25.7873 20.5102 25.3396 20.5102 24.7873C20.5102 24.235 20.0624 23.7873 19.5102 23.7873H17.9102C17.3579 23.7873 16.9102 24.235 16.9102 24.7873Z" fill="#FAA61A"/>
<path fill-rule="evenodd" clip-rule="evenodd" d="M22.9102 24.7873C22.9102 25.3396 23.3579 25.7873 23.9102 25.7873H25.5102C26.0624 25.7873 26.5102 25.3396 26.5102 24.7873C26.5102 24.235 26.0624 23.7873 25.5102 23.7873H23.9102C23.3579 23.7873 22.9102 24.235 22.9102 24.7873Z" fill="#FAA61A"/>
<path fill-rule="evenodd" clip-rule="evenodd" d="M28.9102 24.7873C28.9102 25.3396 29.3579 25.7873 29.9102 25.7873H31.5102C32.0624 25.7873 32.5102 25.3396 32.5102 24.7873C32.5102 24.235 32.0624 23.7873 31.5102 23.7873H29.9102C29.3579 23.7873 28.9102 24.235 28.9102 24.7873Z" fill="#FAA61A"/>
<path fill-rule="evenodd" clip-rule="evenodd" d="M16.9102 29.5873C16.9102 30.1396 17.3579 30.5873 17.9102 30.5873H19.5102C20.0624 30.5873 20.5102 30.1396 20.5102 29.5873C20.5102 29.035 20.0624 28.5873 19.5102 28.5873H17.9102C17.3579 28.5873 16.9102 29.035 16.9102 29.5873Z" fill="#FAA61A"/>
<path fill-rule="evenodd" clip-rule="evenodd" d="M22.9102 29.5873C22.9102 30.1396 23.3579 30.5873 23.9102 30.5873H25.5102C26.0624 30.5873 26.5102 30.1396 26.5102 29.5873C26.5102 29.035 26.0624 28.5873 25.5102 28.5873H23.9102C23.3579 28.5873 22.9102 29.035 22.9102 29.5873Z" fill="#FAA61A"/>
<path fill-rule="evenodd" clip-rule="evenodd" d="M19.6104 9.14697C19.6104 8.73276 19.2746 8.39697 18.8604 8.39697C18.4461 8.39697 18.1104 8.73276 18.1104 9.14697V10.5898L15.1117 10.5885C13.4543 10.5878 12.1104 11.9311 12.1104 13.5885L12.1104 36.3872C12.1104 38.0441 13.4535 39.3872 15.1104 39.3872L25.9704 39.3872C28.7447 39.3872 31.2008 37.5352 31.9767 35.0584C32.1029 34.6557 32.4247 34.3363 32.8299 34.2182C35.3922 33.4715 37.3104 31.0837 37.3104 28.3858L37.3104 13.5969C37.3104 11.9405 35.968 10.5976 34.3117 10.5969L30.4104 10.5952V9.14697C30.4104 8.73276 30.0746 8.39697 29.6604 8.39697C29.2462 8.39697 28.9104 8.73276 28.9104 9.14697V10.5945L25.0104 10.5928V9.14697C25.0104 8.73276 24.6746 8.39697 24.2604 8.39697C23.8462 8.39697 23.5104 8.73276 23.5104 9.14697V10.5922L19.6104 10.5905V9.14697ZM28.9104 12.0945L25.0104 12.0928V13.647C25.0104 14.0612 24.6746 14.397 24.2604 14.397C23.8462 14.397 23.5104 14.0612 23.5104 13.647V12.0922L19.6104 12.0905V13.647C19.6104 14.0612 19.2746 14.397 18.8604 14.397C18.4461 14.397 18.1104 14.0612 18.1104 13.647V12.0898L15.111 12.0885C14.2823 12.0881 13.6104 12.7598 13.6104 13.5885L13.6104 36.3872C13.6104 37.2156 14.2819 37.8872 15.1104 37.8872L25.9704 37.8872C28.0959 37.8872 29.9675 36.4545 30.5453 34.61C30.8192 33.7356 31.5158 33.0388 32.4103 32.7781C34.3756 32.2054 35.8104 30.373 35.8104 28.3858L35.8104 13.5969C35.8104 12.7687 35.1392 12.0972 34.311 12.0969L30.4104 12.0952V13.647C30.4104 14.0612 30.0746 14.397 29.6604 14.397C29.2462 14.397 28.9104 14.0612 28.9104 13.647V12.0945Z" fill="#474C54"/>
</svg>
