<svg width="24" height="24" viewBox="0 0 24 24" fill="none" xmlns="http://www.w3.org/2000/svg">
<g clip-path="url(#clip0)">
<path d="M24 18.0001C24 19.4728 22.806 20.6667 21.3333 20.6667H2.66666C1.19402 20.6667 0 19.4728 0 18.0001V15.3334H24V18.0001Z" fill="#CE2028"/>
<path d="M21.3333 3.91255H2.66666C2.05245 3.91255 1.4711 4.248 1.0322 4.84051C0.593347 5.43295 0.3125 6.26616 0.3125 7.20005V10.4875H23.6875V7.20005C23.6875 6.26616 23.4067 5.43295 22.9678 4.84051C22.5289 4.248 21.9476 3.91255 21.3333 3.91255Z" fill="white" stroke="#BFC5D2" stroke-width="0.5"/>
<path d="M24 15.6001H0V9.60009H24V15.6001Z" fill="#22408C"/>
</g>
<defs>
<clipPath id="clip0">
<path d="M0 0H24V24H0V0Z" fill="white"/>
</clipPath>
</defs>
</svg>
