<?xml version="1.0" encoding="UTF-8" standalone="no"?>
<svg
   xmlns:dc="http://purl.org/dc/elements/1.1/"
   xmlns:cc="http://creativecommons.org/ns#"
   xmlns:rdf="http://www.w3.org/1999/02/22-rdf-syntax-ns#"
   xmlns:svg="http://www.w3.org/2000/svg"
   xmlns="http://www.w3.org/2000/svg"
   width="30.000944"
   height="21.599974"
   viewBox="0 0 30.000944 21.599974"
   fill="none"
   version="1.1"
   id="svg885">
  <metadata
     id="metadata891">
    <rdf:RDF>
      <cc:Work
         rdf:about="">
        <dc:format>image/svg+xml</dc:format>
        <dc:type
           rdf:resource="http://purl.org/dc/dcmitype/StillImage" />
        <dc:title></dc:title>
      </cc:Work>
    </rdf:RDF>
  </metadata>
  <defs
     id="defs889" />
  <path
     d="m 28.873779,9.690573 c 0.5133,0.6642 0.5133,1.5547 0,2.2189 -1.1363,1.4707 -3.0714,3.724 -5.51,5.6034 -2.4469,1.8858 -5.3251,3.3371 -8.3633,3.3371 -3.0382,0 -5.9163997,-1.4513 -8.3633097,-3.3371 -2.4386,-1.8794 -4.37366,-4.1327 -5.51005,-5.6034 -0.51322004,-0.6642 -0.51322004,-1.5547 0,-2.2189 1.13639,-1.47071 3.07145,-3.72402 5.51005,-5.60343 C 9.0840793,2.201363 11.962279,0.75 15.000479,0.75 c 3.0382,0 5.9164,1.451363 8.3633,3.337143 2.4386,1.87941 4.3737,4.13272 5.51,5.60343 z"
     stroke="#515151"
     stroke-width="1.5"
     id="path881" />
  <circle
     cx="15.000579"
     cy="10.799773"
     r="5"
     stroke="#ffaa00"
     stroke-width="2"
     id="circle883" />
</svg>
