<svg width="20" height="14" viewBox="0 0 20 14" fill="none" xmlns="http://www.w3.org/2000/svg">
<path d="M18.8691 2.23438C18.9395 2.51562 18.998 2.86719 19.0449 3.28906C19.1152 3.71094 19.1621 4.13281 19.1855 4.55469C19.209 4.95312 19.2207 5.32812 19.2207 5.67969C19.2441 6.03125 19.2559 6.32422 19.2559 6.55859V6.875C19.2559 8.98438 19.127 10.543 18.8691 11.5508C18.752 11.9492 18.541 12.3008 18.2363 12.6055C17.9316 12.9102 17.5684 13.1211 17.1465 13.2383C16.7012 13.3555 15.8574 13.4492 14.6152 13.5195C13.373 13.5664 12.2363 13.6016 11.2051 13.625H9.6582C5.65039 13.625 3.1543 13.4961 2.16992 13.2383C1.25586 12.9805 0.681641 12.418 0.447266 11.5508C0.330078 11.1055 0.236328 10.4961 0.166016 9.72266C0.119141 8.92578 0.0839844 8.25781 0.0605469 7.71875V6.875C0.0605469 4.78906 0.189453 3.24219 0.447266 2.23438C0.564453 1.8125 0.775391 1.44922 1.08008 1.14453C1.38477 0.839844 1.74805 0.628906 2.16992 0.511719C2.61523 0.394531 3.45898 0.3125 4.70117 0.265625C5.94336 0.195312 7.08008 0.148438 8.11133 0.125H9.6582C13.666 0.125 16.1621 0.253906 17.1465 0.511719C17.5684 0.628906 17.9316 0.839844 18.2363 1.14453C18.541 1.44922 18.752 1.8125 18.8691 2.23438ZM7.68945 9.75781L12.7168 6.875L7.68945 4.02734V9.75781Z" fill="#231F20"/>
</svg>
