<svg width="24" height="24" viewBox="0 0 24 24" fill="none" xmlns="http://www.w3.org/2000/svg">
<g clip-path="url(#clip0)">
<path d="M24 17.6668C24 19.1395 22.806 20.3335 21.3333 20.3335H2.66666C1.19402 20.3335 0 19.1395 0 17.6668V5.66683C0 4.19414 1.19402 3.00017 2.66666 3.00017H21.3333C22.806 3.00017 24 4.1942 24 5.66683V17.6668Z" fill="#E30917"/>
<path d="M10.666 15.6669C8.45664 15.6669 6.66596 13.8763 6.66596 11.6669C6.66596 9.45759 8.45664 7.66691 10.666 7.66691C11.54 7.66691 12.346 7.95027 13.004 8.42558C12.1053 7.40956 10.796 6.76491 9.33268 6.76491C6.62535 6.76491 4.43066 8.9596 4.43066 11.6669C4.43066 14.3742 6.62535 16.5696 9.33268 16.5696C10.796 16.5696 12.106 15.9249 13.004 14.9076C12.3467 15.3836 11.5407 15.6669 10.666 15.6669Z" fill="#EEEEEE"/>
<path d="M13.2744 11.8203L14.9004 12.1949L15.0477 13.8569L15.9064 12.4263L17.5331 12.8003L16.4371 11.5409L17.2951 10.1102L15.7591 10.7635L14.6637 9.50418L14.8104 11.1668L13.2744 11.8203Z" fill="#EEEEEE"/>
</g>
<defs>
<clipPath id="clip0">
<path d="M0 0H24V24H0V0Z" fill="white"/>
</clipPath>
</defs>
</svg>
